<svg width="999" height="529" xmlns="http://www.w3.org/2000/svg" preserveAspectRatio="xMidYMid meet">

 <g>
  <title>background</title>
  <rect fill="#ffffff" id="canvas_background" height="531" width="1001" y="-1" x="-1"/>
 </g>
 <g>
  <title>Layer 1</title>
  <g id="svg_1" fill="#000000" transform="translate(0.000000,529.000000) scale(0.100000,-0.100000)">
   <path id="svg_2" d="m6852,4838c9,-7 19,-24 21,-38c4,-21 5,-20 6,8c1,27 5,32 26,32c26,0 26,0 23,-82l-3,-83l-42,-3l-42,-3l14,28c8,15 15,39 14,53c0,17 -4,10 -12,-20c-8,-30 -19,-48 -34,-55c-17,-7 -23,-18 -23,-40c1,-27 2,-28 12,-10c17,30 28,35 86,35c39,0 57,-5 72,-20l20,-20l0,24c0,13 -7,26 -15,30c-24,9 -21,151 3,165c12,8 -4,10 -62,11c-66,0 -77,-2 -64,-12z"/>
   <path id="svg_3" d="m8301,4836c-82,-46 -59,-160 35,-173c39,-5 93,11 80,24c-3,3 -12,0 -20,-6c-24,-20 -69,-9 -84,19c-17,34 -9,110 14,127c28,21 61,15 83,-13l21,-27l0,29c0,28 -2,29 -53,31c-29,2 -62,-3 -76,-11z"/>
   <path id="svg_4" d="m8598,4757l3,-93l44,-2c69,-3 105,51 70,104c-14,21 -22,25 -46,20c-28,-5 -29,-4 -29,29c0,30 -3,35 -22,35c-22,0 -23,-2 -20,-93zm88,-12c9,-38 -3,-77 -24,-73c-17,3 -29,56 -18,84c9,23 35,16 42,-11z"/>
   <path id="svg_5" d="m9020,4830c-34,-34 -27,-54 38,-94c47,-29 53,-59 14,-64c-26,-4 -50,13 -62,43c-7,16 -9,13 -9,-15c-1,-35 0,-35 46,-38c52,-3 83,17 83,53c0,25 -20,45 -68,69c-21,11 -32,23 -30,34c5,25 44,26 67,3c20,-20 21,-20 21,-2c0,34 -69,42 -100,11z"/>
   <path id="svg_6" d="m9285,4755c0,-95 0,-95 25,-95c24,0 25,2 23,57c-1,32 -2,75 -2,96c-1,32 -4,37 -23,37c-22,0 -23,-3 -23,-95z"/>
   <path id="svg_7" d="m9718,4838c7,-7 12,-41 12,-83c0,-42 -5,-76 -12,-83c-9,-9 -3,-12 27,-12c30,0 36,3 27,12c-7,7 -12,44 -12,95l0,83l-27,0c-21,0 -24,-3 -15,-12z"/>
   <path id="svg_8" d="m7015,4725c0,-63 1,-65 25,-65c24,0 25,2 25,65c0,63 -1,65 -25,65c-24,0 -25,-2 -25,-65z"/>
   <path id="svg_9" d="m7086,4776c3,-8 0,-24 -6,-36c-9,-18 -9,-21 0,-15c9,6 11,-2 8,-29c-4,-33 -2,-36 22,-36c24,0 25,2 25,65c0,64 0,65 -27,65c-20,0 -26,-4 -22,-14z"/>
   <path id="svg_10" d="m7168,4778c16,-16 16,-150 0,-166c-9,-9 -2,-12 33,-11c24,0 38,3 32,6c-7,2 -13,17 -13,32c0,24 3,28 23,24c32,-6 57,21 57,62c0,48 -20,63 -86,64c-44,0 -54,-3 -46,-11zm87,-59c0,-32 -4,-44 -15,-44c-16,0 -26,54 -16,82c12,30 31,6 31,-38z"/>
   <path id="svg_11" d="m7348,4780c-25,-15 -33,-66 -14,-95c20,-31 56,-32 82,-4c19,22 19,22 -3,9c-18,-11 -24,-12 -37,-1c-28,23 -19,41 19,41c39,0 46,17 17,43c-21,19 -39,21 -64,7zm46,-16c9,-23 8,-24 -14,-24c-19,0 -27,20 -13,33c11,11 20,8 27,-9z"/>
   <path id="svg_12" d="m7455,4725c0,-63 1,-65 26,-65c23,0 25,3 21,33l-4,32l27,-32c15,-18 35,-33 46,-33c20,0 20,1 -2,33c-13,17 -26,34 -30,37c-3,3 -2,16 3,29c8,23 9,23 22,5c16,-21 32,-13 22,11c-9,24 -39,14 -54,-18c-18,-36 -35,-35 -30,3c4,27 2,30 -21,30c-25,0 -26,-2 -26,-65z"/>
   <path id="svg_13" d="m7601,4773c0,-11 3,-13 6,-5c2,6 13,12 24,12c16,0 19,-7 19,-48c0,-26 -5,-53 -12,-60c-9,-9 -3,-12 27,-12c30,0 36,3 27,12c-7,7 -12,34 -12,60c0,41 3,48 19,48c11,0 22,-6 24,-12c3,-8 6,-6 6,5c1,14 -8,17 -64,17c-56,0 -65,-3 -64,-17z"/>
   <path id="svg_14" d="m7767,4772c-21,-23 -22,-76 -1,-96c37,-38 94,-8 94,48c0,57 -58,87 -93,48zm57,-8c14,-38 3,-94 -19,-94c-19,0 -28,35 -20,76c6,35 28,46 39,18z"/>
   <path id="svg_15" d="m7889,4777c15,-15 15,-149 -1,-165c-9,-9 -3,-12 27,-12c30,0 36,3 27,12c-7,7 -12,22 -12,35c0,20 4,22 25,17c53,-13 90,71 48,108c-22,19 -133,24 -114,5zm89,-51c4,-46 -10,-65 -33,-46c-27,22 -16,94 14,88c11,-2 17,-16 19,-42z"/>
   <path id="svg_16" d="m8068,4723l36,-67l17,39c21,47 24,70 5,37l-13,-24l-12,30c-7,17 -10,36 -6,41c4,7 -7,11 -28,11l-35,0l36,-67z"/>
   <path id="svg_17" d="m8136,4775c4,-8 7,-15 9,-15c1,0 8,7 15,15c10,13 9,15 -8,15c-15,0 -20,-5 -16,-15z"/>
   <path id="svg_18" d="m8453,4773c8,-10 25,-40 36,-66c17,-39 19,-53 9,-70c-7,-14 -13,-17 -16,-9c-2,6 -10,12 -19,12c-20,0 -12,-34 10,-38c13,-3 24,11 43,53c14,32 22,60 19,63c-3,3 -5,1 -5,-4c-1,-5 -7,6 -15,25c-8,18 -12,37 -9,42c3,5 -12,9 -32,9c-35,0 -36,-1 -21,-17z"/>
   <path id="svg_19" d="m8544,4760c-1,-17 0,-29 0,-28c1,2 10,15 19,31c17,26 17,27 0,27c-13,0 -18,-8 -19,-30z"/>
   <path id="svg_20" d="m8770,4770c-11,-11 -20,-33 -20,-48c0,-51 61,-82 90,-47c11,13 10,14 -4,9c-19,-7 -46,12 -46,32c0,9 12,14 35,14c39,0 42,6 19,38c-19,27 -48,28 -74,2zm50,-10c0,-11 -7,-20 -15,-20c-15,0 -21,21 -8,33c12,13 23,7 23,-13z"/>
   <path id="svg_21" d="m8885,4725c0,-63 1,-65 25,-65c24,0 25,3 21,46c-2,28 2,50 9,57c10,9 14,9 17,0c7,-20 23,-15 23,7c0,22 -20,26 -38,8c-9,-9 -12,-9 -12,0c0,7 -10,12 -22,12c-22,0 -23,-4 -23,-65z"/>
   <path id="svg_22" d="m9184,4782c-38,-25 -39,-93 -2,-113c21,-11 68,-4 68,10c0,5 -9,7 -20,4c-30,-8 -51,54 -30,87c8,13 11,12 24,-5c16,-22 32,-15 23,10c-7,16 -44,20 -63,7z"/>
   <path id="svg_23" d="m9345,4780c-3,-5 -1,-10 5,-10c8,0 11,-18 8,-55c-3,-53 -2,-55 22,-55c24,0 25,2 21,52c-1,29 -8,59 -13,66c-13,15 -34,16 -43,2z"/>
   <path id="svg_24" d="m9455,4776c-13,-9 -19,-26 -19,-51c0,-59 60,-88 97,-47c52,57 -17,143 -78,98zm50,-52c0,-37 -4,-49 -15,-49c-17,0 -25,43 -15,82c10,42 30,20 30,-33z"/>
   <path id="svg_25" d="m9595,4776c-13,-9 -19,-26 -19,-51c0,-59 60,-88 97,-47c52,57 -17,143 -78,98zm50,-52c0,-37 -4,-49 -15,-49c-17,0 -25,43 -15,82c10,42 30,20 30,-33z"/>
   <path id="svg_26" d="m8086,4634c-5,-13 -9,-14 -21,-4c-18,15 -30,7 -22,-15c9,-22 34,-19 47,6c7,11 10,23 7,25c-2,3 -7,-3 -11,-12z"/>
   <path id="svg_27" d="m5931,4161c-9,-6 -10,-11 -2,-15c7,-4 11,-39 11,-86c0,-77 1,-80 25,-86c16,-4 35,0 51,10c21,15 25,24 22,58c-4,49 -27,70 -58,50c-19,-11 -20,-10 -20,33c0,46 -4,51 -29,36zm77,-93c29,-29 3,-98 -33,-84c-15,5 -22,76 -8,89c10,11 28,8 41,-5z"/>
   <path id="svg_28" d="m6571,4161c-9,-6 -10,-11 -2,-15c15,-10 14,-149 -1,-164c-9,-9 -4,-12 23,-12c22,0 29,3 21,9c-9,5 -12,24 -10,52c2,37 7,45 26,47c20,3 22,0 22,-46c0,-31 -5,-52 -12,-55c-7,-3 3,-6 22,-6c26,-1 31,2 22,11c-7,7 -12,34 -12,60c0,54 -18,70 -51,49c-18,-10 -19,-8 -19,34c0,46 -4,51 -29,36z"/>
   <path id="svg_29" d="m7005,4163c-6,-2 -9,-38 -7,-89c3,-64 0,-89 -10,-95c-8,-6 -1,-9 21,-9c26,0 31,3 23,13c-6,7 -12,51 -14,98c-2,52 -7,84 -13,82z"/>
   <path id="svg_30" d="m2958,4142c30,-30 84,-131 77,-143c-4,-6 -16,-9 -26,-6c-21,6 -35,-8 -19,-18c24,-15 49,9 80,78c18,39 40,80 48,90c14,16 13,17 -11,17c-19,0 -25,-4 -21,-15c7,-18 -26,-109 -36,-98c-4,4 -18,27 -31,51c-20,37 -21,45 -9,52c11,7 3,10 -27,10c-42,0 -42,-1 -25,-18z"/>
   <path id="svg_31" d="m4230,4152c0,-15 24,-32 46,-32c24,0 51,26 40,38c-4,4 -12,-1 -17,-11c-12,-21 -35,-22 -43,-2c-6,16 -26,21 -26,7z"/>
   <path id="svg_32" d="m5630,4131c-63,-62 -24,-161 63,-161c14,0 35,9 48,21l24,21l-25,-16c-33,-21 -52,-20 -84,5c-52,41 -26,149 37,149c27,0 40,-9 55,-35c10,-18 11,-17 12,10c0,29 -2,30 -50,33c-45,2 -54,-1 -80,-27z"/>
   <path id="svg_33" d="m6306,4144c-9,-8 -16,-24 -16,-34c0,-19 38,-55 70,-65c25,-8 34,-36 16,-53c-20,-20 -64,-8 -76,21c-8,20 -9,20 -9,-8c-1,-28 2,-30 40,-32c55,-3 79,11 79,46c0,24 -9,35 -50,60c-53,33 -57,40 -38,59c19,19 45,14 62,-10l16,-22l0,24c0,22 -5,25 -39,28c-25,1 -45,-3 -55,-14z"/>
   <path id="svg_34" d="m7086,4152c-2,-4 -2,-37 2,-72c6,-64 6,-64 13,-25c11,57 11,105 0,105c-6,0 -12,-4 -15,-8z"/>
   <path id="svg_35" d="m3155,4035l0,-66l44,3c53,4 78,31 48,53c-12,8 -14,15 -8,20c16,10 13,42 -5,49c-9,3 -30,6 -47,6l-32,0l0,-65zm70,30c0,-13 -8,-21 -22,-23c-19,-3 -23,1 -23,23c0,22 4,26 23,23c14,-2 22,-10 22,-23zm0,-60c0,-13 -8,-21 -22,-23c-19,-3 -23,1 -23,23c0,22 4,26 23,23c14,-2 22,-10 22,-23z"/>
   <path id="svg_36" d="m3297,4094c-10,-11 -9,-34 3,-34c6,0 10,7 10,16c0,21 34,14 38,-8c2,-12 -8,-22 -33,-32c-29,-12 -36,-20 -33,-38c3,-26 34,-36 52,-17c8,9 8,10 0,6c-15,-8 -35,15 -26,29c4,6 15,13 25,17c14,5 17,1 17,-28c0,-34 20,-49 35,-25c3,6 2,10 -4,10c-5,0 -11,24 -13,53c-3,50 -4,52 -33,55c-17,2 -34,0 -38,-4z"/>
   <path id="svg_37" d="m3405,4090c-3,-5 3,-10 14,-10c12,0 21,-5 21,-12c0,-6 3,-8 6,-5c8,7 -14,37 -27,37c-4,0 -11,-4 -14,-10z"/>
   <path id="svg_38" d="m3468,4093c6,-2 12,-16 12,-30c0,-16 -5,-23 -12,-20c-7,2 -25,-13 -40,-34c-24,-33 -25,-39 -10,-39c9,0 26,15 36,33c19,31 20,31 24,8c2,-13 -2,-28 -10,-32c-8,-6 -1,-9 22,-9c26,0 31,3 22,12c-13,13 -16,48 -4,48c4,0 16,-13 25,-30c10,-16 25,-30 33,-30c12,0 12,5 -3,28c-10,15 -21,30 -26,33c-13,9 11,49 28,49c8,0 15,5 15,10c0,22 -30,8 -45,-20c-9,-16 -20,-30 -25,-30c-14,0 -12,34 2,48c9,9 4,12 -22,11c-19,0 -29,-3 -22,-6z"/>
   <path id="svg_39" d="m3610,4085c-7,-9 -10,-19 -6,-23c4,-4 12,1 17,11c13,22 35,22 43,1c8,-20 10,-17 -31,-38c-21,-10 -33,-24 -33,-37c0,-25 27,-36 51,-21c13,8 19,8 21,0c3,-7 11,-9 24,-4c12,6 15,10 7,13c-8,3 -13,22 -13,47c0,23 -5,47 -12,54c-17,17 -53,15 -68,-3zm58,-67c-2,-15 -11,-24 -25,-26c-28,-4 -31,22 -5,37c26,16 34,13 30,-11z"/>
   <path id="svg_40" d="m3749,4090c-9,-5 -20,-21 -23,-34c-16,-64 45,-110 87,-67l22,22l-29,-12c-26,-12 -30,-11 -47,10c-28,34 -24,41 26,41c48,0 55,9 29,34c-17,18 -41,20 -65,6zm49,-17c2,-9 -7,-13 -28,-13c-28,0 -31,2 -20,15c15,18 41,16 48,-2z"/>
   <path id="svg_41" d="m3848,4093c7,-3 12,-25 12,-58c0,-33 -5,-55 -12,-58c-7,-3 0,-6 17,-6c22,-1 26,2 17,11c-7,7 -12,30 -11,53l1,40l19,-40c10,-22 20,-44 23,-50c2,-6 9,-3 15,5c13,18 14,33 2,26c-5,-3 -16,15 -26,39c-14,38 -21,45 -43,44c-15,0 -21,-3 -14,-6z"/>
   <path id="svg_42" d="m3957,4083c-2,-10 -8,-27 -12,-38c-4,-13 -1,-12 9,5l15,25l1,-40c0,-23 -5,-46 -12,-53c-9,-9 -4,-12 22,-12c24,0 31,3 21,9c-9,6 -12,25 -10,65c3,47 1,56 -12,56c-9,0 -19,-8 -22,-17z"/>
   <path id="svg_43" d="m4028,4093c7,-3 12,-25 12,-58c0,-33 -5,-55 -12,-58c-7,-3 6,-6 29,-6c56,-1 73,7 73,34c0,23 -17,35 -51,35c-24,0 -26,35 -1,49c13,8 9,10 -23,10c-22,0 -34,-3 -27,-6zm77,-88c0,-13 -8,-21 -22,-23c-19,-3 -23,1 -23,23c0,22 4,26 23,23c14,-2 22,-10 22,-23z"/>
   <path id="svg_44" d="m4143,4089c20,-12 24,-88 5,-107c-9,-9 -7,-12 13,-12c23,0 24,2 20,56c-2,40 1,59 10,65c9,6 0,9 -26,9c-32,-1 -36,-3 -22,-11z"/>
   <path id="svg_45" d="m4218,4088c16,-16 16,-90 0,-106c-9,-9 -4,-12 23,-11c18,0 28,3 22,6c-7,2 -13,10 -13,17c0,13 41,56 53,56c11,0 8,-39 -3,-61c-9,-16 -7,-19 12,-19c22,0 23,4 23,65c0,60 -2,65 -22,65c-15,0 -20,-5 -16,-18c2,-10 -6,-27 -21,-41l-26,-24l0,35c0,20 6,39 13,41c6,3 -4,6 -22,6c-27,1 -32,-2 -23,-11z"/>
   <path id="svg_46" d="m4458,4088c5,-7 12,-22 15,-33c4,-15 5,-13 6,8c1,20 6,27 21,27c18,0 20,-7 20,-55c0,-55 0,-55 -30,-55c-28,0 -30,2 -25,28c5,23 4,24 -4,6c-5,-12 -14,-25 -20,-29c-6,-3 -11,-14 -11,-23c0,-12 3,-13 12,-4c19,19 95,15 107,-5c9,-16 10,-16 11,5c0,12 -4,22 -10,22c-15,0 -13,107 3,113c6,3 -14,6 -47,6c-46,1 -56,-2 -48,-11z"/>
   <path id="svg_47" d="m4578,4093c7,-3 12,-25 12,-58c0,-33 -5,-55 -12,-58c-7,-3 2,-6 21,-6c27,-1 31,2 22,12c-8,10 -7,17 1,25c9,9 9,12 0,12c-7,0 -12,13 -12,28c0,15 5,33 12,40c9,9 4,12 -22,11c-19,0 -29,-3 -22,-6z"/>
   <path id="svg_48" d="m4658,4088c9,-9 8,-16 -6,-32c-16,-20 -16,-20 1,-7c15,12 17,10 17,-21c0,-19 -5,-39 -12,-46c-9,-9 -4,-12 23,-11c18,0 28,3 22,6c-8,3 -13,25 -13,58c0,33 5,55 13,58c6,3 -4,6 -22,6c-27,1 -32,-2 -23,-11z"/>
   <path id="svg_49" d="m4731,4091c-9,-6 -10,-11 -2,-15c15,-10 14,-139 -1,-154c-9,-9 -4,-12 23,-11c18,0 28,3 22,6c-7,2 -13,17 -13,32c0,24 3,28 23,24c34,-7 59,27 55,73c-4,45 -28,65 -58,46c-12,-7 -20,-8 -20,-2c0,12 -10,13 -29,1zm77,-23c29,-29 3,-98 -33,-84c-15,5 -22,76 -8,89c10,11 28,8 41,-5z"/>
   <path id="svg_50" d="m4886,4084c-9,-8 -16,-31 -16,-49c0,-60 49,-85 86,-44c19,22 19,22 -3,10c-28,-14 -58,-1 -66,29c-5,18 0,20 39,20c48,0 61,20 25,40c-27,14 -47,13 -65,-6zm52,-11c2,-8 -6,-13 -22,-13c-25,0 -33,10 -19,24c10,10 36,3 41,-11z"/>
   <path id="svg_51" d="m4998,4088c16,-16 16,-90 0,-106c-9,-9 -4,-12 23,-12c22,0 29,3 21,9c-8,4 -12,19 -10,32c3,23 4,23 23,-8c10,-18 28,-33 38,-33c16,0 15,3 -7,33c-30,39 -26,77 7,77c15,0 18,3 10,11c-14,14 -32,4 -43,-27c-5,-13 -14,-24 -20,-24c-14,0 -12,47 3,53c6,3 -4,6 -22,6c-27,1 -32,-2 -23,-11z"/>
   <path id="svg_52" d="m5121,4083c0,-11 3,-13 6,-5c2,6 13,12 24,12c16,0 19,-7 19,-48c0,-26 -5,-53 -12,-60c-9,-9 -4,-12 23,-11c18,0 28,3 22,6c-8,3 -13,25 -13,60c0,50 2,55 20,50c11,-3 20,-1 20,4c0,5 -25,9 -55,9c-46,0 -55,-3 -54,-17z"/>
   <path id="svg_53" d="m5267,4082c-36,-39 -10,-112 39,-112c25,0 38,10 53,37c16,31 14,50 -9,73c-25,25 -62,26 -83,2zm61,-4c19,-19 15,-87 -5,-95c-20,-8 -53,30 -53,61c0,24 17,46 35,46c6,0 16,-5 23,-12z"/>
   <path id="svg_54" d="m5390,4090c-10,-6 -11,-10 -2,-10c16,0 17,-141 0,-158c-9,-9 -4,-12 23,-11c18,0 28,3 22,6c-7,2 -13,17 -13,33c0,23 4,27 19,23c50,-13 88,55 57,102c-18,27 -45,32 -64,13c-9,-9 -12,-9 -12,0c0,14 -10,15 -30,2zm85,-60c0,-41 -2,-45 -25,-45c-21,0 -26,5 -28,33c-5,47 4,64 30,60c20,-3 23,-9 23,-48z"/>
   <path id="svg_55" d="m5811,4048c16,-29 29,-62 29,-73c0,-26 -18,-45 -35,-39c-7,3 -16,1 -20,-5c-10,-17 25,-25 40,-10c8,8 29,51 48,97c31,73 33,82 17,82c-13,0 -17,-5 -13,-19c3,-10 -2,-31 -10,-47l-15,-28l-16,33c-10,18 -15,39 -12,47c4,10 -2,14 -18,14l-24,0l29,-52z"/>
   <path id="svg_56" d="m6086,4084c-9,-8 -16,-31 -16,-49c0,-60 49,-85 86,-44c19,22 19,22 -3,10c-28,-14 -58,-1 -66,29c-5,18 0,20 39,20c48,0 61,20 25,40c-27,14 -47,13 -65,-6zm52,-11c2,-8 -6,-13 -22,-13c-25,0 -33,10 -19,24c10,10 36,3 41,-11z"/>
   <path id="svg_57" d="m6190,4090c-10,-6 -11,-10 -2,-10c8,0 12,-17 12,-49c0,-30 -5,-51 -12,-54c-7,-3 2,-6 21,-6c28,-1 31,1 22,13c-7,8 -11,32 -9,53c3,32 6,38 26,37c12,0 22,5 22,13c0,16 -22,17 -38,1c-9,-9 -12,-9 -12,0c0,14 -10,15 -30,2z"/>
   <path id="svg_58" d="m6457,4082c-39,-43 -5,-121 46,-108c14,3 27,13 31,21c4,13 2,13 -14,5c-25,-14 -49,-3 -56,26c-12,48 25,83 51,48c7,-11 17,-16 21,-12c11,12 -17,38 -41,38c-12,0 -29,-8 -38,-18z"/>
   <path id="svg_59" d="m6734,4092c-15,-10 -34,-47 -34,-66c0,-22 36,-56 60,-56c29,0 60,35 60,68c0,46 -51,78 -86,54zm60,-45c8,-31 7,-41 -7,-55c-24,-23 -51,-5 -55,37c-5,46 4,63 30,59c17,-2 25,-13 32,-41z"/>
   <path id="svg_60" d="m6874,4092c-15,-10 -34,-47 -34,-66c0,-22 36,-56 60,-56c29,0 60,35 60,68c0,46 -51,78 -86,54zm60,-45c8,-31 7,-41 -7,-55c-24,-23 -51,-5 -55,37c-5,46 4,63 30,59c17,-2 25,-13 32,-41z"/>
   <path id="svg_61" d="m7087,3994c-8,-8 1,-24 14,-24c5,0 9,7 9,15c0,15 -12,20 -23,9z"/>
   <path id="svg_62" d="m1034,3494c11,-11 16,-35 16,-79c0,-44 -5,-68 -16,-79c-14,-15 -10,-16 46,-16c34,0 70,5 81,10c24,13 26,65 3,78c-11,6 -13,11 -5,16c6,4 11,20 11,36c0,38 -23,50 -95,50c-51,0 -55,-1 -41,-16zm100,-10c19,-18 19,-20 6,-45c-7,-12 -21,-19 -40,-19c-28,0 -30,2 -30,40c0,36 3,40 24,40c14,0 32,-7 40,-16zm10,-96c16,-26 -4,-52 -43,-56c-30,-3 -31,-2 -31,38c0,40 1,41 31,38c18,-2 37,-11 43,-20z"/>
   <path id="svg_63" d="m3224,3494c11,-11 16,-35 16,-79c0,-44 -5,-68 -16,-79c-14,-15 -10,-16 46,-16c34,0 70,5 81,10c24,13 26,65 3,78c-11,6 -13,11 -5,16c6,4 11,20 11,36c0,38 -23,50 -95,50c-51,0 -55,-1 -41,-16zm100,-10c19,-18 19,-20 6,-45c-7,-12 -21,-19 -40,-19c-28,0 -30,2 -30,40c0,36 3,40 24,40c14,0 32,-7 40,-16zm10,-96c16,-26 -4,-52 -43,-56c-30,-3 -31,-2 -31,38c0,40 1,41 31,38c18,-2 37,-11 43,-20z"/>
   <path id="svg_64" d="m1327,3432c-39,-43 -5,-121 46,-108c14,3 27,13 31,21c4,13 2,13 -14,5c-25,-14 -49,-3 -56,26c-12,48 25,83 51,48c7,-11 17,-16 21,-12c11,12 -17,38 -41,38c-12,0 -29,-8 -38,-18z"/>
   <path id="svg_65" d="m1464,3442c-15,-10 -34,-47 -34,-66c0,-22 36,-56 60,-56c29,0 60,35 60,68c0,46 -51,78 -86,54zm60,-45c8,-31 7,-41 -7,-55c-24,-23 -51,-5 -55,37c-5,46 4,63 30,59c17,-2 25,-13 32,-41z"/>
   <path id="svg_66" d="m1604,3442c-15,-10 -34,-47 -34,-66c0,-22 36,-56 60,-56c29,0 60,35 60,68c0,46 -51,78 -86,54zm60,-45c8,-31 7,-41 -7,-55c-24,-23 -51,-5 -55,37c-5,46 4,63 30,59c17,-2 25,-13 32,-41z"/>
   <path id="svg_67" d="m1710,3441c0,-5 9,-7 20,-4c18,5 20,0 20,-50c0,-35 -5,-57 -12,-60c-7,-3 5,-6 27,-6c32,0 36,2 23,10c-13,7 -18,23 -18,59c0,43 3,50 19,50c11,0 22,-6 24,-12c3,-8 6,-6 6,5c1,14 -8,17 -54,17c-30,0 -55,-4 -55,-9z"/>
   <path id="svg_68" d="m1838,3443c7,-3 12,-25 12,-58c0,-33 -5,-55 -12,-59c-7,-3 11,-4 41,-3c40,1 57,7 65,20c9,14 7,21 -5,30c-12,9 -14,16 -6,29c18,28 -9,48 -62,47c-25,0 -40,-3 -33,-6zm75,-17c6,-16 -11,-36 -30,-36c-7,0 -13,11 -13,25c0,18 5,25 19,25c10,0 21,-6 24,-14zm2,-71c0,-13 -8,-21 -22,-23c-19,-3 -23,1 -23,23c0,22 4,26 23,23c14,-2 22,-10 22,-23z"/>
   <path id="svg_69" d="m1986,3434c-9,-8 -16,-31 -16,-49c0,-60 49,-85 86,-44c19,22 19,22 -3,10c-28,-14 -58,-1 -66,29c-5,18 0,20 39,20c48,0 61,20 25,40c-27,14 -47,13 -65,-6zm52,-11c2,-8 -6,-13 -22,-13c-25,0 -33,10 -19,24c10,10 36,3 41,-11z"/>
   <path id="svg_70" d="m2086,3434c-9,-24 -7,-31 5,-11c5,9 17,17 24,17c19,0 21,-106 3,-113c-7,-3 5,-6 27,-6c32,0 36,2 23,10c-24,13 -26,109 -3,109c7,0 19,-8 24,-17c9,-16 10,-16 11,5c0,20 -5,22 -54,22c-40,0 -55,-4 -60,-16z"/>
   <path id="svg_71" d="m2230,3430c-26,-26 -26,-64 1,-91c26,-26 57,-21 78,11c15,25 15,25 -5,8c-28,-24 -41,-23 -60,7c-14,21 -15,31 -6,50c13,28 40,33 48,10c8,-19 24,-20 24,-1c0,30 -52,34 -80,6z"/>
   <path id="svg_72" d="m2330,3428c1,-21 2,-21 11,-5c5,9 17,17 24,17c19,0 21,-90 3,-108c-9,-9 -4,-12 23,-11c18,0 28,3 22,6c-19,7 -17,113 2,113c7,0 19,-8 25,-17c11,-17 11,-17 6,0c-3,10 -6,21 -6,23c0,2 -25,4 -55,4c-50,0 -55,-2 -55,-22z"/>
   <path id="svg_73" d="m2468,3439c15,-16 16,-91 0,-107c-9,-9 -3,-12 29,-12c23,0 48,3 57,6c16,6 22,35 9,48c-4,3 -7,21 -7,39c-1,31 -2,32 -51,35c-40,3 -48,1 -37,-9zm67,-24c0,-11 -8,-21 -17,-23c-14,-3 -18,3 -18,23c0,20 4,26 18,23c9,-2 17,-12 17,-23zm2,-46c16,-16 5,-39 -18,-39c-14,0 -19,7 -19,25c0,26 18,33 37,14z"/>
   <path id="svg_74" d="m2598,3438c16,-16 16,-90 0,-106c-9,-9 -4,-12 22,-11c19,0 29,3 23,6c-7,2 -13,10 -13,17c0,13 41,56 53,56c11,0 8,-39 -3,-61c-9,-16 -7,-19 12,-19c22,0 23,4 23,65c0,60 -2,65 -22,65c-15,0 -20,-5 -16,-18c2,-10 -6,-27 -21,-41l-26,-24l0,35c0,20 6,39 13,41c6,3 -4,6 -22,6c-27,1 -32,-2 -23,-11z"/>
   <path id="svg_75" d="m2748,3438c16,-16 16,-90 0,-106c-9,-9 -4,-12 22,-11c19,0 29,3 23,6c-7,2 -13,10 -13,17c0,13 41,56 53,56c11,0 8,-39 -3,-61c-9,-16 -7,-19 12,-19c22,0 23,4 23,65c0,60 -2,65 -22,65c-15,0 -20,-5 -16,-18c2,-10 -6,-27 -21,-41l-26,-24l0,35c0,20 6,39 13,41c6,3 -4,6 -22,6c-27,1 -32,-2 -23,-11z"/>
   <path id="svg_76" d="m3010,3430c-44,-44 -8,-124 47,-104c14,5 28,15 31,22c3,11 1,11 -16,1c-18,-11 -24,-10 -42,6c-25,22 -23,63 3,79c14,9 20,7 28,-6c12,-21 29,-24 29,-4c0,30 -52,34 -80,6z"/>
   <path id="svg_77" d="m3417,3444c-10,-11 -9,-34 3,-34c6,0 10,7 10,16c0,21 34,14 38,-8c2,-12 -8,-22 -33,-32c-29,-12 -36,-20 -33,-38c3,-26 34,-36 52,-17c8,9 8,10 0,6c-15,-8 -35,15 -26,29c4,6 15,13 25,17c14,5 17,1 17,-28c0,-34 20,-49 35,-25c3,6 2,10 -4,10c-5,0 -11,24 -13,53c-3,50 -4,52 -33,55c-17,2 -34,0 -38,-4z"/>
   <path id="svg_78" d="m3528,3438c16,-16 16,-90 0,-106c-9,-9 11,-12 92,-12c81,0 101,3 92,12c-7,7 -12,30 -12,53c0,23 5,46 12,53c9,9 4,12 -22,11c-19,0 -29,-3 -22,-6c7,-3 12,-25 12,-59c0,-51 -1,-54 -25,-54c-24,0 -25,3 -25,54c0,34 5,56 13,59c6,3 -4,5 -23,5c-19,0 -29,-2 -22,-5c7,-3 12,-25 12,-59c0,-51 -1,-54 -25,-54c-24,0 -25,3 -25,54c0,34 5,56 13,59c6,3 -4,6 -22,6c-27,1 -32,-2 -23,-11z"/>
   <path id="svg_79" d="m3748,3438c16,-16 16,-90 0,-106c-9,-9 -6,-12 14,-12c20,0 25,4 21,18c-2,10 6,27 21,41l26,24l0,-35c0,-20 -6,-39 -12,-41c-7,-3 3,-6 22,-6c26,-1 31,2 22,11c-7,7 -12,30 -12,53c0,23 5,46 12,53c9,9 6,12 -14,12c-20,0 -25,-4 -21,-18c2,-10 -6,-27 -21,-41l-26,-24l0,35c0,20 6,39 13,41c6,3 -4,6 -22,6c-27,1 -32,-2 -23,-11z"/>
   <path id="svg_80" d="m3908,3428c12,-13 22,-27 22,-30c0,-3 7,-23 16,-44l16,-38l24,54l23,55l1,-47c0,-28 -5,-48 -12,-51c-7,-3 2,-6 21,-6c28,-1 32,1 21,14c-7,8 -11,35 -8,65c4,65 -15,67 -43,3l-21,-48l-18,45c-13,33 -24,46 -41,48l-24,4l23,-24z"/>
   <path id="svg_81" d="m4068,3443c7,-3 12,-25 12,-58c0,-33 -5,-55 -12,-58c-7,-3 2,-6 21,-6c27,-1 31,2 22,12c-8,10 -7,17 1,25c9,9 9,12 0,12c-7,0 -12,13 -12,28c0,15 5,33 12,40c9,9 4,12 -22,11c-19,0 -29,-3 -22,-6z"/>
   <path id="svg_82" d="m4148,3438c9,-9 8,-16 -6,-32c-16,-20 -16,-20 1,-7c15,12 17,10 17,-21c0,-19 -5,-39 -12,-46c-9,-9 -4,-12 23,-11c18,0 28,3 22,6c-8,3 -13,25 -13,58c0,33 5,55 13,58c6,3 -4,6 -22,6c-27,1 -32,-2 -23,-11z"/>
   <path id="svg_83" d="m4341,3398c16,-29 29,-62 29,-73c0,-26 -18,-45 -35,-39c-7,3 -16,1 -20,-5c-10,-17 25,-25 40,-10c8,8 29,51 48,97c31,73 33,82 17,82c-13,0 -17,-5 -13,-19c3,-10 -2,-31 -10,-47l-15,-28l-16,33c-10,18 -15,39 -12,47c4,10 -2,14 -18,14l-24,0l29,-52z"/>
   <path id="svg_84" d="m4458,3443c7,-3 12,-25 12,-58c0,-33 -5,-55 -12,-58c-7,-3 3,-6 22,-6c26,-1 31,2 22,11c-13,13 -16,48 -4,48c4,0 16,-13 25,-30c10,-17 27,-30 37,-30c17,0 17,2 -5,26c-24,26 -29,38 -25,59c1,6 -4,4 -11,-2c-7,-7 -17,-13 -21,-13c-12,0 -9,35 4,48c9,9 4,12 -22,11c-19,0 -29,-3 -22,-6z"/>
   <path id="svg_85" d="m4537,3443c-13,-13 -7,-21 13,-16c11,3 20,9 20,14c0,10 -24,12 -33,2z"/>
   <path id="svg_86" d="m4607,3444c-10,-11 -9,-34 3,-34c6,0 10,7 10,16c0,21 34,14 38,-8c2,-12 -8,-22 -33,-32c-29,-12 -36,-20 -33,-38c3,-26 34,-36 52,-17c8,9 8,10 0,6c-15,-8 -35,15 -26,29c4,6 15,13 25,17c14,5 17,1 17,-28c0,-34 20,-49 35,-25c3,6 2,10 -4,10c-5,0 -11,24 -13,53c-3,50 -4,52 -33,55c-17,2 -34,0 -38,-4z"/>
   <path id="svg_87" d="m4720,3434c0,-13 3,-14 15,-4c16,13 45,7 45,-9c0,-5 -7,-16 -15,-24c-13,-13 -13,-16 0,-21c23,-8 18,-35 -7,-46c-22,-8 -22,-9 4,-9c35,-1 55,31 33,53c-9,9 -11,17 -5,21c16,10 12,42 -6,49c-31,12 -64,7 -64,-10z"/>
   <path id="svg_88" d="m4840,3435c-7,-9 -10,-19 -6,-23c4,-4 12,1 17,11c13,22 35,22 43,1c8,-20 10,-17 -32,-38c-25,-13 -32,-23 -30,-39c3,-19 9,-22 48,-22l44,0l-3,50c-1,28 -7,56 -13,63c-14,17 -53,15 -68,-3zm60,-65c0,-27 -38,-47 -47,-24c-4,11 1,22 12,30c26,19 35,17 35,-6z"/>
   <path id="svg_89" d="m4958,3438c16,-16 16,-90 0,-106c-9,-9 -4,-12 23,-11c18,0 28,3 22,6c-7,2 -13,16 -13,29c0,19 5,24 25,24c20,0 25,-5 25,-24c0,-13 -6,-27 -12,-29c-7,-3 3,-6 22,-6c26,-1 31,2 22,11c-7,7 -12,30 -12,53c0,23 5,46 12,53c9,9 4,12 -22,11c-19,0 -29,-3 -22,-6c6,-2 12,-16 12,-29c0,-19 -5,-24 -25,-24c-20,0 -25,5 -25,24c0,13 6,27 13,29c6,3 -4,6 -22,6c-27,1 -32,-2 -23,-11z"/>
   <path id="svg_90" d="m5108,3438c16,-16 16,-90 0,-106c-9,-9 -6,-12 14,-12c20,0 25,4 21,18c-2,10 6,27 21,41l26,24l0,-35c0,-20 -6,-39 -12,-41c-7,-3 3,-6 22,-6c26,-1 31,2 22,11c-7,7 -12,30 -12,53c0,23 5,46 12,53c9,9 6,12 -14,12c-20,0 -25,-4 -21,-18c2,-10 -6,-27 -21,-41l-26,-24l0,35c0,20 6,39 13,41c6,3 -4,6 -22,6c-27,1 -32,-2 -23,-11z"/>
   <path id="svg_91" d="m5273,3443c-16,-6 -16,-28 -1,-53c10,-16 9,-23 -12,-45c-16,-17 -19,-25 -9,-25c8,0 26,14 41,32l27,33l1,-27c0,-14 -6,-29 -12,-31c-7,-3 3,-6 22,-6c26,-1 31,2 22,11c-7,7 -12,30 -12,53c0,23 5,46 12,53c9,9 3,12 -27,11c-22,0 -46,-3 -52,-6zm47,-28c0,-28 -12,-32 -30,-10c-14,16 -6,35 16,35c8,0 14,-10 14,-25z"/>
   <path id="svg_92" d="m5378,3443c7,-3 12,-25 12,-58c0,-33 -5,-55 -12,-58c-7,-3 0,-6 17,-6c22,-1 26,2 17,11c-7,7 -12,30 -11,53l1,40l19,-40c10,-22 20,-44 23,-50c2,-6 9,-3 15,5c13,18 14,33 2,26c-5,-3 -16,15 -26,39c-14,38 -21,45 -43,44c-15,0 -21,-3 -14,-6z"/>
   <path id="svg_93" d="m5487,3433c-2,-10 -8,-27 -12,-38c-4,-13 -1,-12 9,5l15,25l1,-40c0,-23 -5,-46 -12,-53c-9,-9 -4,-12 23,-12c23,0 30,3 20,9c-9,6 -12,25 -10,65c3,47 1,56 -12,56c-9,0 -19,-8 -22,-17z"/>
   <path id="svg_94" d="m5558,3443c7,-3 12,-25 12,-58c0,-33 -5,-55 -12,-58c-7,-3 2,-6 21,-6c27,-1 31,2 22,12c-8,10 -7,17 1,25c9,9 9,12 0,12c-7,0 -12,13 -12,28c0,15 5,33 12,40c9,9 4,12 -22,11c-19,0 -29,-3 -22,-6z"/>
   <path id="svg_95" d="m5638,3438c9,-9 8,-16 -6,-32c-16,-20 -16,-20 1,-7c15,12 17,10 17,-21c0,-19 -5,-39 -12,-46c-9,-9 -4,-12 23,-11c18,0 28,3 22,6c-8,3 -13,25 -13,58c0,33 5,55 13,58c6,3 -4,6 -22,6c-27,1 -32,-2 -23,-11z"/>
   <path id="svg_96" d="m5878,3443c7,-3 12,-25 12,-58c0,-33 -5,-55 -12,-58c-7,-3 1,-5 17,-5c17,0 24,2 18,5c-8,3 -13,23 -13,51l1,47l23,-55l24,-54l16,38c19,46 20,60 2,27c-13,-24 -13,-23 -31,23c-15,39 -22,46 -44,45c-14,0 -20,-3 -13,-6z"/>
   <path id="svg_97" d="m5986,3434c-8,-22 -8,-26 4,-19c13,8 13,-51 0,-76c-9,-16 -7,-19 12,-19c22,0 23,4 23,65c0,54 -3,65 -16,65c-9,0 -20,-7 -23,-16z"/>
   <path id="svg_98" d="m6058,3438c7,-7 12,-30 12,-53c0,-23 -5,-46 -12,-53c-9,-9 -2,-12 34,-12c52,0 79,21 61,48c-5,10 -22,18 -37,20c-20,3 -26,9 -26,27c0,13 6,26 13,28c6,3 -4,6 -22,6c-27,1 -32,-2 -23,-11zm67,-83c0,-11 -8,-21 -17,-23c-14,-3 -18,3 -18,23c0,20 4,26 18,23c9,-2 17,-12 17,-23z"/>
   <path id="svg_99" d="m6169,3441c9,-6 12,-25 10,-65c-3,-45 -1,-56 11,-56c12,0 14,11 12,50c-3,30 1,57 8,65c11,13 7,15 -21,15c-23,0 -30,-3 -20,-9z"/>
   <path id="svg_100" d="m6357,3432c-39,-43 -5,-121 46,-108c14,3 27,13 31,21c4,13 2,13 -14,5c-25,-14 -49,-3 -56,26c-12,48 25,83 51,48c7,-11 17,-16 21,-12c11,12 -17,38 -41,38c-12,0 -29,-8 -38,-18z"/>
   <path id="svg_101" d="m6468,3438c7,-7 12,-30 12,-53c0,-23 -5,-46 -12,-53c-9,-9 -4,-12 23,-11c18,0 28,3 22,6c-8,3 -13,25 -13,60l0,55l30,-4c17,-3 30,-1 30,4c0,4 -23,8 -52,8c-40,0 -49,-3 -40,-12z"/>
   <path id="svg_102" d="m6597,3432c-39,-43 -5,-121 46,-108c14,3 28,14 31,23c6,15 5,16 -5,6c-17,-17 -34,-16 -53,3c-28,28 -20,44 24,44c41,0 52,14 28,38c-18,18 -53,15 -71,-6zm53,-7c11,-13 8,-15 -19,-15c-30,0 -39,9 -24,23c11,11 30,8 43,-8z"/>
   <path id="svg_103" d="m6708,3438c7,-7 12,-30 12,-53c0,-23 -5,-46 -12,-53c-9,-9 -4,-12 23,-11c18,0 28,3 22,6c-7,2 -13,16 -13,29c0,19 5,24 25,24c20,0 25,-5 25,-24c0,-13 -6,-27 -12,-29c-7,-3 3,-6 22,-6c26,-1 31,2 22,11c-7,7 -12,30 -12,53c0,23 5,46 12,53c9,9 4,12 -22,11c-19,0 -29,-3 -22,-6c6,-2 12,-16 12,-29c0,-19 -5,-24 -25,-24c-20,0 -25,5 -25,24c0,13 6,27 13,29c6,3 -4,6 -22,6c-27,1 -32,-2 -23,-11z"/>
   <path id="svg_104" d="m6902,3444c9,-3 19,-12 22,-20c4,-10 -3,-14 -25,-14c-25,0 -30,3 -25,18c5,14 4,14 -9,-2c-42,-55 25,-142 73,-94c19,19 14,29 -7,16c-17,-10 -23,-9 -40,6c-35,31 -26,46 25,46c46,0 46,0 32,23c-9,12 -26,23 -39,24c-13,1 -17,-1 -7,-3z"/>
   <path id="svg_105" d="m6981,3441c-9,-6 -10,-11 -2,-15c15,-10 14,-139 -1,-154c-9,-9 -4,-12 23,-11c18,0 28,3 22,6c-7,2 -13,17 -13,32c0,24 3,28 23,24c34,-7 59,27 55,73c-4,45 -28,65 -58,46c-12,-7 -20,-8 -20,-2c0,12 -10,13 -29,1zm77,-23c29,-29 3,-98 -33,-84c-15,5 -22,76 -8,89c10,11 28,8 41,-5z"/>
   <path id="svg_106" d="m7118,3443c7,-3 12,-25 12,-58c0,-33 -5,-55 -12,-58c-7,-3 2,-6 21,-6c27,-1 31,2 22,12c-8,10 -7,17 1,25c9,9 9,12 0,12c-7,0 -12,13 -12,28c0,15 5,33 12,40c9,9 4,12 -22,11c-19,0 -29,-3 -22,-6z"/>
   <path id="svg_107" d="m7198,3438c9,-9 8,-16 -6,-32c-16,-20 -16,-20 1,-7c15,12 17,10 17,-21c0,-19 -5,-39 -12,-46c-9,-9 -4,-12 23,-11c18,0 28,3 22,6c-8,3 -13,25 -13,58c0,33 5,55 13,58c6,3 -4,6 -22,6c-27,1 -32,-2 -23,-11z"/>
   <path id="svg_108" d="m7271,3441c-9,-6 -10,-11 -2,-15c15,-10 14,-139 -1,-154c-9,-9 -4,-12 23,-11c18,0 28,3 22,6c-7,2 -13,17 -13,32c0,24 3,28 23,24c34,-7 59,27 55,73c-4,45 -28,65 -58,46c-12,-7 -20,-8 -20,-2c0,12 -10,13 -29,1zm77,-23c29,-29 3,-98 -33,-84c-15,5 -22,76 -8,89c10,11 28,8 41,-5z"/>
   <path id="svg_109" d="m7427,3432c-21,-23 -22,-76 -1,-96c36,-37 94,-6 94,51c0,54 -59,83 -93,45zm67,-23c14,-41 0,-81 -27,-77c-26,4 -43,44 -33,82c9,36 47,32 60,-5z"/>
   <path id="svg_110" d="m7548,3443c7,-3 12,-25 12,-58c0,-33 -5,-55 -12,-59c-7,-3 11,-4 41,-3c40,1 57,7 65,20c9,14 7,21 -5,30c-12,9 -14,16 -6,29c18,28 -9,48 -62,47c-25,0 -40,-3 -33,-6zm75,-17c6,-16 -11,-36 -30,-36c-7,0 -13,11 -13,25c0,18 5,25 19,25c10,0 21,-6 24,-14zm2,-71c0,-13 -8,-21 -22,-23c-19,-3 -23,1 -23,23c0,22 4,26 23,23c14,-2 22,-10 22,-23z"/>
   <path id="svg_111" d="m7690,3435c-7,-9 -10,-19 -6,-23c4,-4 12,1 17,11c13,22 35,22 43,1c8,-20 10,-17 -31,-38c-21,-10 -33,-24 -33,-37c0,-25 27,-36 51,-21c13,8 19,8 21,0c3,-7 11,-9 24,-4c12,6 15,10 7,13c-8,3 -13,22 -13,47c0,23 -5,47 -12,54c-17,17 -53,15 -68,-3zm58,-67c-2,-15 -11,-24 -25,-26c-28,-4 -31,22 -5,37c26,16 34,13 30,-11z"/>
   <path id="svg_112" d="m7829,3394c3,-49 1,-56 -13,-51c-10,4 -16,1 -16,-9c0,-9 7,-14 18,-12c13,2 18,15 20,61c3,53 5,57 27,57c23,0 25,-4 25,-44c0,-27 -6,-51 -16,-60c-14,-15 -13,-16 13,-16c28,0 28,0 28,65l0,65l-45,0l-45,0l4,-56z"/>
   <path id="svg_113" d="m7948,3438c7,-7 12,-30 12,-53c0,-23 -5,-46 -12,-53c-9,-9 -6,-12 14,-12c20,0 25,4 21,18c-2,10 6,27 21,41l26,24l0,-35c0,-20 -6,-39 -12,-41c-7,-3 3,-6 22,-6c26,-1 31,2 22,11c-7,7 -12,30 -12,53c0,23 5,46 12,53c9,9 6,12 -14,12c-20,0 -25,-4 -21,-18c2,-10 -6,-27 -21,-41l-26,-24l0,35c0,20 6,39 13,41c6,3 -4,6 -22,6c-27,1 -32,-2 -23,-11z"/>
   <path id="svg_114" d="m8198,3438c7,-7 12,-30 12,-53c0,-23 -5,-46 -12,-53c-9,-9 -6,-12 14,-12c20,0 25,4 21,18c-2,10 6,27 21,41l26,24l0,-35c0,-20 -6,-39 -12,-41c-7,-3 3,-6 22,-6c26,-1 31,2 22,11c-7,7 -12,30 -12,53c0,23 5,46 12,53c9,9 6,12 -14,12c-20,0 -25,-4 -21,-18c2,-10 -6,-27 -21,-41l-26,-24l0,35c0,20 6,39 13,41c6,3 -4,6 -22,6c-27,1 -32,-2 -23,-11z"/>
   <path id="svg_115" d="m8438,3443c7,-3 12,-25 12,-58c0,-33 -5,-55 -12,-58c-7,-3 3,-6 22,-6c26,-1 31,2 22,11c-7,7 -12,20 -12,30c0,13 8,18 30,18c25,0 30,-4 30,-24c0,-13 -6,-27 -12,-29c-7,-3 3,-6 22,-6c26,-1 31,2 22,11c-7,7 -12,30 -12,53c0,23 5,46 12,53c9,9 4,12 -22,11c-19,0 -29,-3 -22,-6c6,-2 12,-16 12,-29c0,-20 -5,-24 -30,-24c-22,0 -30,5 -30,18c0,10 5,23 12,30c9,9 4,12 -22,11c-19,0 -29,-3 -22,-6z"/>
   <path id="svg_116" d="m8600,3435c-7,-9 -10,-19 -6,-23c4,-4 12,1 17,11c13,22 35,22 43,1c8,-20 10,-17 -31,-38c-21,-10 -33,-24 -33,-37c0,-25 27,-36 51,-21c13,8 19,8 21,0c3,-7 11,-9 24,-4c12,6 15,10 7,13c-8,3 -13,22 -13,47c0,23 -5,47 -12,54c-17,17 -53,15 -68,-3zm58,-67c-2,-15 -11,-24 -25,-26c-28,-4 -31,22 -5,37c26,16 34,13 30,-11z"/>
   <path id="svg_117" d="m8738,3438c5,-7 12,-22 15,-33c4,-15 5,-13 6,8c1,20 6,27 21,27c18,0 20,-7 20,-55c0,-55 0,-55 -30,-55c-28,0 -30,2 -25,28c5,23 4,24 -4,6c-5,-12 -14,-25 -20,-29c-6,-3 -11,-14 -11,-23c0,-12 3,-13 12,-4c19,19 95,15 107,-5c9,-16 10,-16 11,5c0,12 -4,22 -10,22c-15,0 -13,107 3,113c6,3 -14,6 -47,6c-46,1 -56,-2 -48,-11z"/>
   <path id="svg_118" d="m8876,3434c-9,-8 -16,-31 -16,-49c0,-60 49,-85 86,-44c19,22 19,22 -3,10c-28,-14 -58,-1 -66,29c-5,18 0,20 39,20c48,0 61,20 25,40c-27,14 -47,13 -65,-6zm52,-11c2,-8 -6,-13 -22,-13c-25,0 -33,10 -19,24c10,10 36,3 41,-11z"/>
   <path id="svg_119" d="m8980,3440c0,-5 6,-10 14,-10c28,0 29,-39 1,-75c-25,-33 -25,-35 -6,-35c13,0 27,12 38,33c17,31 18,31 21,8c2,-13 -2,-28 -10,-32c-9,-6 -2,-9 20,-9c29,0 32,2 22,19c-5,11 -10,24 -10,30c0,21 20,10 35,-19c10,-19 23,-30 36,-30c19,0 19,1 5,16c-38,38 -44,94 -10,94c8,0 14,5 14,10c0,20 -31,9 -40,-14c-10,-26 -28,-42 -37,-32c-4,3 -1,17 5,31c11,24 10,25 -21,24c-17,0 -26,-3 -19,-6c14,-5 17,-53 3,-53c-5,0 -14,14 -21,30c-12,28 -40,42 -40,20z"/>
   <path id="svg_120" d="m9178,3438c7,-7 12,-30 12,-53c0,-23 -5,-46 -12,-53c-9,-9 -4,-12 23,-11c18,0 28,3 22,6c-7,2 -13,16 -13,29c0,20 5,24 30,24c22,0 30,-5 30,-18c0,-10 -5,-23 -12,-30c-9,-9 -7,-12 13,-12c23,0 24,3 24,65c0,62 -1,65 -24,65c-20,0 -22,-3 -13,-12c7,-7 12,-20 12,-30c0,-13 -8,-18 -30,-18c-25,0 -30,4 -30,24c0,13 6,27 13,29c6,3 -4,6 -22,6c-27,1 -32,-2 -23,-11z"/>
   <path id="svg_121" d="m9354,3442c-15,-10 -34,-47 -34,-66c0,-22 36,-56 60,-56c29,0 60,35 60,68c0,46 -51,78 -86,54zm60,-45c8,-31 7,-41 -7,-55c-24,-23 -51,-5 -55,37c-5,46 4,63 30,59c17,-2 25,-13 32,-41z"/>
   <path id="svg_122" d="m5717,3344c-12,-12 -8,-24 9,-24c11,0 14,-5 9,-17c-5,-14 -3,-15 5,-7c7,7 10,20 8,30c-3,19 -20,28 -31,18z"/>
   <path id="svg_123" d="m3895,3330c-3,-5 3,-10 15,-10c12,0 18,5 15,10c-3,6 -10,10 -15,10c-5,0 -12,-4 -15,-10z"/>
   <path id="svg_124" d="m4371,3021c-9,-6 -10,-11 -2,-15c6,-4 11,-18 11,-31c0,-19 -4,-22 -21,-18c-27,7 -49,-19 -49,-60c0,-42 17,-67 45,-67c30,0 35,-33 8,-49c-14,-8 -10,-10 22,-10c22,0 34,3 28,6c-10,3 -13,39 -13,129c0,68 -3,124 -7,124c-5,0 -14,-4 -22,-9zm3,-87c12,-32 6,-84 -10,-91c-20,-7 -34,13 -34,49c0,36 9,58 25,58c7,0 16,-7 19,-16z"/>
   <path id="svg_125" d="m6966,3011c-9,-10 -16,-25 -16,-33c0,-9 -6,-19 -12,-21c-10,-4 -10,-6 0,-6c16,-1 16,-93 0,-109c-9,-9 -3,-12 28,-12c31,1 36,3 22,11c-13,7 -18,23 -18,59c0,38 4,50 18,53c16,4 16,5 0,6c-24,1 -24,49 -1,58c9,4 19,1 21,-5c2,-7 10,-12 18,-12c18,0 20,-140 2,-158c-9,-9 -4,-12 23,-11c18,0 28,3 22,6c-9,3 -13,32 -13,97l0,92l-39,1c-26,1 -44,-4 -55,-16z"/>
   <path id="svg_126" d="m7391,3014c11,-12 15,-30 12,-50c-3,-20 1,-36 12,-47c15,-16 15,-18 0,-34c-11,-11 -15,-27 -12,-47c3,-20 -1,-38 -12,-50c-15,-18 -15,-18 7,-7c17,9 22,20 22,54c0,24 5,48 12,55c9,9 9,15 0,24c-7,7 -12,31 -12,55c0,34 -5,45 -22,54c-22,11 -22,11 -7,-7z"/>
   <path id="svg_127" d="m2770,3012c0,-15 24,-32 46,-32c24,0 51,26 40,38c-4,4 -12,-1 -17,-11c-12,-21 -38,-22 -45,-2c-6,16 -24,21 -24,7z"/>
   <path id="svg_128" d="m4100,3012c0,-15 24,-32 46,-32c24,0 51,26 40,38c-4,4 -12,-1 -17,-11c-12,-21 -35,-22 -43,-2c-6,16 -26,21 -26,7z"/>
   <path id="svg_129" d="m5050,2991c-63,-62 -24,-161 63,-161c14,0 35,9 48,21l24,21l-25,-16c-33,-21 -52,-20 -84,5c-52,41 -26,149 37,149c27,0 40,-9 55,-35c10,-18 11,-17 12,10c0,29 -2,30 -50,33c-45,2 -54,-1 -80,-27z"/>
   <path id="svg_130" d="m5226,3004c-9,-8 -16,-24 -16,-34c0,-19 38,-55 70,-65c25,-8 34,-36 16,-53c-20,-20 -64,-8 -76,21c-8,20 -9,20 -9,-8c-1,-28 2,-30 40,-32c55,-3 79,11 79,46c0,24 -9,35 -50,60c-53,33 -57,40 -38,59c19,19 45,14 62,-10l16,-22l0,24c0,22 -5,25 -39,28c-25,1 -45,-3 -55,-14z"/>
   <path id="svg_131" d="m5424,3008c-4,-6 -7,-27 -6,-46c1,-20 -3,-41 -9,-49c-8,-9 -8,-17 0,-27c6,-7 10,-28 9,-45l-2,-31l-206,-2l-205,-3l200,-2c110,-2 207,-6 215,-11c8,-4 -82,-9 -200,-12l-215,-6l240,0c132,-1 230,1 218,3c-13,2 -23,8 -23,13c0,5 10,11 23,13c20,4 19,4 -4,6c-22,1 -26,5 -21,26c3,16 -2,33 -13,45c-17,18 -17,21 -2,38c10,11 16,33 14,60c-1,46 -2,48 -13,30z"/>
   <path id="svg_132" d="m7640,3003c0,-13 3,-14 12,-5c7,7 20,12 30,12c16,0 18,-10 18,-84c0,-58 -4,-86 -12,-89c-7,-3 5,-5 27,-5c22,0 34,2 28,5c-9,3 -13,31 -13,89c0,74 2,84 18,84c10,0 23,-5 30,-12c9,-9 12,-8 12,5c0,14 -11,17 -75,17c-64,0 -75,-3 -75,-17z"/>
   <path id="svg_133" d="m9093,3009c14,-8 17,-24 17,-84c0,-60 -3,-76 -17,-84c-14,-8 -2,-10 47,-11c72,0 110,17 110,50c0,11 -9,25 -19,32c-16,10 -17,14 -5,25c42,42 -3,83 -91,83c-46,-1 -56,-3 -42,-11zm111,-21c16,-26 -4,-53 -40,-53c-23,0 -30,5 -32,23c-2,13 -1,30 2,38c8,20 56,14 70,-8zm0,-84c19,-19 20,-25 3,-48c-9,-12 -23,-17 -42,-14c-27,3 -30,7 -33,41c-3,35 -2,37 27,37c16,0 37,-7 45,-16z"/>
   <path id="svg_134" d="m6718,2968c-10,-10 -13,-18 -8,-18c6,0 10,-25 10,-55c0,-58 18,-81 43,-56c9,10 9,12 -3,9c-12,-2 -16,9 -18,49c-2,43 0,52 15,56c15,4 16,5 1,6c-9,0 -18,7 -20,14c-2,9 -8,8 -20,-5z"/>
   <path id="svg_135" d="m190,2940c-44,-44 -8,-124 47,-104c14,5 28,15 31,22c3,11 1,11 -16,1c-18,-11 -24,-10 -42,6c-25,22 -23,63 3,79c14,9 20,7 28,-6c12,-21 29,-24 29,-4c0,30 -52,34 -80,6z"/>
   <path id="svg_136" d="m298,2953c7,-3 12,-25 12,-58c0,-33 -5,-55 -12,-58c-7,-3 3,-6 22,-6c26,-1 31,2 22,11c-7,7 -12,34 -12,60c0,47 1,48 30,48c29,0 30,-1 30,-48c0,-26 -5,-53 -12,-60c-9,-9 -4,-12 23,-11c18,0 28,3 22,6c-8,3 -13,25 -13,58c0,33 5,55 13,58c6,3 -22,5 -63,5c-41,0 -69,-2 -62,-5z"/>
   <path id="svg_137" d="m451,2951c-9,-6 -10,-11 -2,-15c15,-10 14,-139 -1,-154c-9,-9 -4,-12 23,-11c18,0 28,3 22,6c-7,2 -13,17 -13,32c0,24 3,28 23,24c34,-7 59,27 55,73c-4,45 -28,65 -58,46c-12,-7 -20,-8 -20,-2c0,12 -10,13 -29,1zm77,-23c29,-29 3,-98 -33,-84c-15,5 -22,76 -8,89c10,11 28,8 41,-5z"/>
   <path id="svg_138" d="m602,2948c-16,-16 -15,-23 4,-42c14,-15 13,-19 -6,-46c-17,-24 -18,-30 -6,-30c8,0 23,14 33,30c9,17 21,30 25,30c12,0 9,-35 -4,-48c-9,-9 -4,-12 23,-11c18,0 28,3 22,6c-8,3 -13,25 -13,58c0,33 5,55 13,58c6,3 -8,6 -33,6c-26,1 -51,-4 -58,-11zm58,-23c0,-25 -23,-35 -35,-15c-10,16 2,40 20,40c9,0 15,-9 15,-25z"/>
   <path id="svg_139" d="m710,2951c0,-5 9,-7 20,-4c18,5 20,0 20,-50c0,-35 -5,-57 -12,-60c-7,-3 5,-6 27,-6c32,0 36,2 23,10c-13,7 -18,23 -18,59c0,43 3,50 19,50c11,0 22,-6 24,-12c3,-8 6,-6 6,5c1,14 -8,17 -54,17c-30,0 -55,-4 -55,-9z"/>
   <path id="svg_140" d="m850,2945c-7,-9 -10,-19 -6,-23c4,-4 12,1 17,11c13,22 35,22 43,1c8,-20 10,-17 -32,-38c-25,-13 -32,-23 -30,-39c3,-19 9,-22 48,-22l44,0l-3,50c-1,28 -7,56 -13,63c-14,17 -53,15 -68,-3zm60,-65c0,-27 -38,-47 -47,-24c-4,11 1,22 12,30c26,19 35,17 35,-6z"/>
   <path id="svg_141" d="m978,2953c7,-3 12,-24 12,-55c0,-40 -3,-49 -15,-45c-8,4 -17,2 -20,-4c-4,-5 1,-12 10,-16c24,-8 35,14 35,70c0,40 3,47 20,47c18,0 20,-7 20,-54c0,-34 -5,-56 -12,-59c-7,-3 3,-6 22,-6c26,-1 31,2 22,11c-7,7 -12,30 -12,53c0,23 5,46 12,53c9,9 -1,12 -47,11c-33,0 -54,-3 -47,-6z"/>
   <path id="svg_142" d="m1108,2948c16,-16 16,-90 0,-106c-9,-9 -6,-12 14,-12c20,0 25,4 21,18c-2,10 6,27 21,41l26,24l0,-35c0,-20 -6,-39 -12,-41c-7,-3 3,-6 22,-6c26,-1 31,2 22,11c-7,7 -12,30 -12,53c0,23 5,46 12,53c9,9 6,12 -14,12c-20,0 -25,-4 -21,-18c2,-10 -6,-27 -21,-41l-26,-24l0,35c0,20 6,39 13,41c6,3 -4,6 -22,6c-27,1 -32,-2 -23,-11z"/>
   <path id="svg_143" d="m1340,2940c-26,-26 -26,-64 1,-91c26,-26 57,-21 78,11c15,25 15,25 -5,8c-28,-24 -41,-23 -60,7c-14,21 -15,31 -6,50c13,28 40,33 48,10c8,-19 24,-20 24,-1c0,30 -52,34 -80,6z"/>
   <path id="svg_144" d="m1448,2953c7,-3 12,-25 12,-58c0,-33 -5,-55 -12,-58c-7,-3 3,-6 22,-6c26,-1 31,2 22,11c-7,7 -12,34 -12,60c0,47 1,48 30,48c30,0 30,-1 30,-54c0,-34 -5,-56 -12,-59c-7,-3 3,-6 22,-6c26,-1 31,2 22,11c-7,7 -12,30 -12,53c0,23 5,46 12,53c9,9 -5,12 -62,11c-41,0 -69,-3 -62,-6z"/>
   <path id="svg_145" d="m1617,2942c-39,-43 -5,-121 46,-108c14,3 28,14 31,23c6,15 5,16 -5,6c-17,-17 -34,-16 -53,3c-28,28 -20,44 24,44c41,0 52,14 28,38c-18,18 -53,15 -71,-6zm53,-7c11,-13 8,-15 -19,-15c-30,0 -39,9 -24,23c11,11 30,8 43,-8z"/>
   <path id="svg_146" d="m1728,2948c7,-7 12,-30 12,-53c0,-23 -5,-46 -12,-53c-9,-9 0,-12 43,-12c30,0 60,-5 67,-12c9,-9 12,-8 12,4c0,9 -4,20 -10,23c-14,9 -12,89 2,103c9,9 4,12 -22,11c-19,0 -29,-3 -22,-6c7,-3 12,-25 12,-59c0,-51 -1,-54 -25,-54c-24,0 -25,3 -25,54c0,34 5,56 13,59c6,3 -4,6 -22,6c-27,1 -32,-2 -23,-11z"/>
   <path id="svg_147" d="m1878,2948c7,-7 12,-30 12,-53c0,-23 -5,-46 -12,-53c-9,-9 -6,-12 14,-12c20,0 25,4 21,18c-2,10 6,27 21,41l26,24l0,-35c0,-20 -6,-39 -12,-41c-7,-3 3,-6 22,-6c26,-1 31,2 22,11c-7,7 -12,30 -12,53c0,23 5,46 12,53c9,9 6,12 -14,12c-20,0 -25,-4 -21,-18c2,-10 -6,-27 -21,-41l-26,-24l0,35c0,20 6,39 13,41c6,3 -4,6 -22,6c-27,1 -32,-2 -23,-11z"/>
   <path id="svg_148" d="m2037,2954c-10,-11 -9,-34 3,-34c6,0 10,7 10,16c0,21 34,14 38,-8c2,-12 -8,-22 -33,-32c-29,-12 -36,-20 -33,-38c3,-26 34,-36 52,-17c8,9 8,10 0,6c-15,-8 -35,15 -26,29c4,6 15,13 25,17c14,5 17,1 17,-28c0,-34 20,-49 35,-25c3,6 2,10 -4,10c-5,0 -11,24 -13,53c-3,50 -4,52 -33,55c-17,2 -34,0 -38,-4z"/>
   <path id="svg_149" d="m2164,2952c3,-5 19,-7 36,-4l30,4l0,-50c0,-38 -4,-54 -17,-61c-14,-8 -10,-10 22,-10c22,0 34,3 28,6c-8,3 -13,25 -13,58c0,33 5,55 13,58c6,3 -14,6 -46,6c-32,1 -56,-3 -53,-7z"/>
   <path id="svg_150" d="m2288,2953c7,-3 12,-25 12,-58c0,-33 -5,-55 -12,-58c-7,-3 6,-6 29,-6c56,-1 73,7 73,34c0,23 -17,35 -51,35c-24,0 -26,35 -1,49c13,8 9,10 -23,10c-22,0 -34,-3 -27,-6zm77,-88c0,-13 -8,-21 -22,-23c-19,-3 -23,1 -23,23c0,22 4,26 23,23c14,-2 22,-10 22,-23z"/>
   <path id="svg_151" d="m2418,2948c7,-7 12,-30 12,-53c0,-23 -5,-46 -12,-53c-9,-9 -4,-12 23,-11c18,0 28,3 22,6c-7,2 -13,16 -13,29c0,20 5,24 30,24c22,0 30,-5 30,-18c0,-10 -5,-23 -12,-30c-9,-9 -7,-12 13,-12c23,0 24,3 24,65c0,62 -1,65 -24,65c-20,0 -22,-3 -13,-12c7,-7 12,-20 12,-30c0,-13 -8,-18 -30,-18c-25,0 -30,4 -30,24c0,13 6,27 13,29c6,3 -4,6 -22,6c-27,1 -32,-2 -23,-11z"/>
   <path id="svg_152" d="m2568,2948c7,-7 12,-30 12,-53c0,-23 -5,-46 -12,-53c-9,-9 -2,-12 34,-12c52,0 79,21 61,48c-5,10 -22,18 -37,20c-20,3 -26,9 -26,27c0,13 6,26 13,28c6,3 -4,6 -22,6c-27,1 -32,-2 -23,-11zm75,-72c6,-16 -11,-36 -30,-36c-7,0 -13,11 -13,25c0,18 5,25 19,25c10,0 21,-6 24,-14z"/>
   <path id="svg_153" d="m2679,2951c9,-6 12,-25 10,-65c-4,-54 -3,-56 21,-56c19,0 21,3 12,12c-16,16 -16,90 0,106c9,9 4,12 -22,12c-24,0 -31,-3 -21,-9z"/>
   <path id="svg_154" d="m2758,2948c16,-16 16,-90 0,-106c-9,-9 -6,-12 14,-12c20,0 25,4 21,18c-2,10 6,27 21,41l26,24l0,-35c0,-20 -6,-39 -12,-41c-7,-3 3,-6 22,-6c26,-1 31,2 22,11c-7,7 -12,30 -12,53c0,23 5,46 12,53c9,9 6,12 -14,12c-20,0 -25,-4 -21,-18c2,-10 -6,-27 -21,-41l-26,-24l0,35c0,20 6,39 13,41c6,3 -4,6 -22,6c-27,1 -32,-2 -23,-11z"/>
   <path id="svg_155" d="m2990,2940c-26,-26 -26,-64 1,-91c26,-26 57,-21 78,11c15,25 15,25 -5,8c-28,-24 -41,-23 -60,7c-14,21 -15,31 -6,50c13,28 40,33 48,10c8,-19 24,-20 24,-1c0,30 -52,34 -80,6z"/>
   <path id="svg_156" d="m3117,2942c-39,-43 -5,-121 46,-108c14,3 28,14 31,23c6,15 5,16 -5,6c-17,-17 -34,-16 -53,3c-28,28 -20,44 24,44c41,0 52,14 28,38c-18,18 -53,15 -71,-6zm53,-7c11,-13 8,-15 -19,-15c-30,0 -39,9 -24,23c11,11 30,8 43,-8z"/>
   <path id="svg_157" d="m3228,2948c16,-16 16,-90 0,-106c-9,-9 -4,-12 22,-11c19,0 29,3 23,6c-7,2 -13,17 -13,31l1,27l27,-33c15,-18 36,-32 46,-32c17,0 18,2 5,13c-40,34 -51,55 -39,76c6,12 17,21 25,21c8,0 15,5 15,10c0,22 -30,8 -45,-20c-9,-16 -20,-30 -25,-30c-15,0 -12,47 3,53c6,3 -4,6 -22,6c-27,1 -32,-2 -23,-11z"/>
   <path id="svg_158" d="m3360,2950c-10,-6 -11,-10 -2,-10c16,0 17,-141 0,-158c-9,-9 -4,-12 22,-11c19,0 29,3 23,6c-7,2 -13,17 -13,33c0,23 4,27 19,23c50,-13 88,55 57,102c-18,27 -45,32 -64,13c-9,-9 -12,-9 -12,0c0,14 -10,15 -30,2zm85,-60c0,-41 -2,-45 -25,-45c-21,0 -26,5 -28,33c-5,47 4,64 30,60c20,-3 23,-9 23,-48z"/>
   <path id="svg_159" d="m3517,2942c-39,-43 -5,-121 46,-108c14,3 28,14 31,23c6,15 5,16 -5,6c-17,-17 -34,-16 -53,3c-28,28 -20,44 24,44c41,0 52,14 28,38c-18,18 -53,15 -71,-6zm53,-7c11,-13 8,-15 -19,-15c-30,0 -39,9 -24,23c11,11 30,8 43,-8z"/>
   <path id="svg_160" d="m3620,2951c0,-5 9,-7 20,-4c18,5 20,0 20,-50c0,-35 -5,-57 -12,-60c-7,-3 5,-6 27,-6c32,0 36,2 23,10c-13,7 -18,23 -18,59c0,43 3,50 19,50c11,0 22,-6 24,-12c3,-8 6,-6 6,5c1,14 -8,17 -54,17c-30,0 -55,-4 -55,-9z"/>
   <path id="svg_161" d="m3748,2953c7,-3 12,-25 12,-58c0,-33 -5,-55 -12,-58c-7,-3 3,-6 22,-6c26,-1 31,2 22,11c-7,7 -12,20 -12,30c0,13 8,18 30,18c22,0 30,-5 30,-18c0,-10 -5,-23 -12,-30c-9,-9 -4,-12 22,-11c19,0 29,3 23,6c-8,3 -13,25 -13,58c0,33 5,55 13,58c6,3 -4,6 -22,6c-27,1 -32,-2 -23,-11c7,-7 12,-20 12,-30c0,-13 -8,-18 -30,-18c-22,0 -30,5 -30,18c0,10 5,23 12,30c9,9 4,12 -22,11c-19,0 -29,-3 -22,-6z"/>
   <path id="svg_162" d="m3898,2953c7,-3 12,-25 12,-58c0,-33 -5,-55 -12,-58c-7,-3 6,-6 29,-6c56,-1 73,7 73,34c0,23 -17,35 -51,35c-24,0 -26,35 -1,49c13,8 9,10 -23,10c-22,0 -34,-3 -27,-6zm77,-88c0,-13 -8,-21 -22,-23c-19,-3 -23,1 -23,23c0,22 4,26 23,23c14,-2 22,-10 22,-23z"/>
   <path id="svg_163" d="m4013,2949c20,-12 24,-88 5,-107c-9,-9 -7,-12 12,-12c24,0 25,2 21,56c-2,40 1,59 10,65c9,6 0,9 -26,9c-32,-1 -36,-3 -22,-11z"/>
   <path id="svg_164" d="m4088,2948c16,-16 16,-90 0,-106c-9,-9 -4,-12 23,-11c18,0 28,3 22,6c-7,2 -13,10 -13,17c0,13 41,56 53,56c11,0 8,-39 -3,-61c-9,-16 -7,-19 12,-19c22,0 23,4 23,65c0,60 -2,65 -22,65c-15,0 -20,-5 -16,-18c2,-10 -6,-27 -21,-41l-26,-24l0,35c0,20 6,39 13,41c6,3 -4,6 -22,6c-27,1 -32,-2 -23,-11z"/>
   <path id="svg_165" d="m4424,2944c9,-8 16,-31 16,-49c0,-18 -7,-41 -16,-49c-14,-14 -14,-16 0,-16c8,0 20,9 26,19c21,41 5,111 -26,111c-14,0 -14,-2 0,-16z"/>
   <path id="svg_166" d="m4509,2946c7,-8 11,-32 9,-53c-2,-29 -7,-38 -20,-37c-10,1 -18,-4 -18,-12c0,-21 28,-17 40,5c5,11 10,38 10,60c0,34 3,41 20,41c18,0 20,-7 20,-54c0,-34 -5,-56 -12,-59c-7,-3 3,-6 22,-6c26,-1 31,2 22,11c-7,7 -12,30 -12,53c0,23 5,46 12,53c9,9 -1,12 -46,12c-50,0 -57,-2 -47,-14z"/>
   <path id="svg_167" d="m4640,2945c-7,-9 -10,-19 -6,-23c4,-4 12,1 17,11c13,22 35,22 43,1c8,-20 10,-17 -31,-38c-21,-10 -33,-24 -33,-37c0,-25 27,-36 51,-21c13,8 19,8 21,0c3,-7 11,-9 24,-4c12,6 15,10 7,13c-8,3 -13,22 -13,47c0,23 -5,47 -12,54c-17,17 -53,15 -68,-3zm58,-67c-2,-15 -11,-24 -25,-26c-28,-4 -31,22 -5,37c26,16 34,13 30,-11z"/>
   <path id="svg_168" d="m4758,2948c16,-16 16,-90 0,-106c-9,-9 -4,-12 23,-11c18,0 28,3 22,6c-8,3 -13,25 -13,59c0,50 2,54 24,54c13,0 27,-6 29,-12c3,-8 6,-6 6,5c1,14 -8,17 -51,17c-40,0 -49,-3 -40,-12z"/>
   <path id="svg_169" d="m4880,2946c0,-9 7,-16 16,-16c9,0 14,5 12,12c-6,18 -28,21 -28,4z"/>
   <path id="svg_170" d="m5498,2948c6,-7 21,-38 35,-68l25,-55l10,27c6,15 20,46 31,68c18,38 18,40 1,40c-13,0 -17,-5 -13,-19c3,-10 -2,-32 -10,-47l-15,-28l-16,39c-13,31 -14,40 -4,47c8,5 0,8 -21,8c-26,0 -31,-3 -23,-12z"/>
   <path id="svg_171" d="m5656,2944c-9,-8 -16,-31 -16,-49c0,-60 49,-85 86,-44c19,22 19,22 -3,10c-28,-14 -58,-1 -66,29c-5,18 0,20 39,20c48,0 61,20 25,40c-27,14 -47,13 -65,-6zm52,-11c2,-8 -6,-13 -22,-13c-25,0 -33,10 -19,24c10,10 36,3 41,-11z"/>
   <path id="svg_172" d="m5760,2950c-10,-6 -11,-10 -2,-10c8,0 12,-17 12,-49c0,-30 -5,-51 -12,-54c-7,-3 2,-6 21,-6c28,-1 31,1 22,13c-7,8 -11,32 -9,53c3,32 6,38 26,37c12,0 22,5 22,13c0,16 -22,17 -38,1c-9,-9 -12,-9 -12,0c0,14 -10,15 -30,2z"/>
   <path id="svg_173" d="m5881,2898c25,-50 29,-65 20,-84c-6,-14 -16,-21 -25,-18c-16,6 -31,-12 -16,-21c18,-11 45,13 59,52c8,21 24,59 36,86c22,45 22,47 4,47c-11,0 -16,-5 -13,-13c2,-7 -2,-28 -10,-47l-14,-34l-17,33c-9,18 -14,39 -11,47c4,10 -2,14 -19,14l-25,0l31,-62z"/>
   <path id="svg_174" d="m6147,2953c-17,-16 -5,-49 23,-65c17,-9 30,-22 30,-28c0,-17 -29,-23 -45,-10c-12,10 -15,9 -15,-4c0,-24 59,-18 74,7c11,19 0,32 -50,63c-16,10 -17,14 -6,25c10,11 16,11 32,1c17,-10 20,-10 20,3c0,15 -50,22 -63,8z"/>
   <path id="svg_175" d="m6292,2954c9,-3 19,-12 22,-20c4,-10 -3,-14 -25,-14c-25,0 -30,3 -25,18c5,14 4,14 -9,-2c-42,-55 25,-142 73,-94c19,19 14,29 -7,16c-17,-10 -23,-9 -40,6c-35,31 -26,46 25,46c46,0 46,0 32,23c-9,12 -26,23 -39,24c-13,1 -17,-1 -7,-3z"/>
   <path id="svg_176" d="m6387,2942c-34,-38 -13,-112 32,-112c20,0 58,37 48,47c-4,3 -7,1 -7,-5c0,-17 -39,-25 -55,-12c-21,17 -19,79 1,87c10,4 22,-1 30,-11c7,-10 18,-15 24,-11c17,10 -8,35 -35,35c-12,0 -29,-8 -38,-18z"/>
   <path id="svg_177" d="m6505,2954c-6,-2 -8,-27 -6,-55c2,-36 -1,-54 -10,-60c-9,-6 -1,-9 24,-9c36,0 37,1 22,17c-12,12 -16,27 -12,54c5,39 -2,58 -18,53z"/>
   <path id="svg_178" d="m6536,2951c-3,-5 3,-11 14,-14c13,-3 20,0 20,9c0,15 -26,19 -34,5z"/>
   <path id="svg_179" d="m6609,2950c-9,-5 -20,-21 -23,-34c-16,-64 45,-110 87,-67l22,22l-29,-12c-26,-12 -30,-11 -47,10c-28,34 -24,41 26,41c48,0 55,9 29,34c-17,18 -41,20 -65,6zm49,-17c2,-9 -7,-13 -28,-13c-28,0 -31,2 -20,15c15,18 41,16 48,-2z"/>
   <path id="svg_180" d="m7110,2945c-7,-9 -10,-19 -6,-23c4,-4 12,1 17,11c13,22 35,22 43,1c8,-20 10,-17 -32,-38c-25,-13 -32,-23 -30,-39c3,-19 9,-22 48,-22l44,0l-3,50c-1,28 -7,56 -13,63c-14,17 -53,15 -68,-3zm60,-65c0,-27 -38,-47 -47,-24c-4,11 1,22 12,30c26,19 35,17 35,-6z"/>
   <path id="svg_181" d="m7248,2949c-20,-11 -24,-54 -8,-64c8,-5 7,-11 0,-20c-7,-8 -9,-19 -6,-24c4,-6 1,-20 -6,-31c-11,-17 -11,-22 2,-30c38,-24 110,2 110,39c0,22 -19,31 -61,31c-16,0 -29,5 -29,10c0,6 11,10 24,10c31,0 59,27 53,51c-3,11 0,19 6,20c15,1 -32,17 -53,18c-8,0 -23,-4 -32,-10zm47,-34c0,-33 -21,-41 -38,-14c-14,22 -1,51 20,47c13,-2 18,-13 18,-33zm30,-105c0,-10 -13,-16 -42,-18c-32,-2 -43,1 -43,11c0,22 12,28 50,25c23,-2 35,-8 35,-18z"/>
   <path id="svg_182" d="m7827,2942c-39,-43 -5,-121 46,-108c14,3 28,14 31,23c6,15 5,16 -5,6c-17,-17 -34,-16 -53,3c-28,28 -20,44 24,44c41,0 52,14 28,38c-18,18 -53,15 -71,-6zm53,-7c11,-13 8,-15 -19,-15c-30,0 -39,9 -24,23c11,11 30,8 43,-8z"/>
   <path id="svg_183" d="m7938,2948c7,-7 12,-30 12,-53c0,-23 -5,-46 -12,-53c-9,-9 -4,-12 23,-11c18,0 28,3 22,6c-8,3 -13,25 -13,59c0,53 0,54 30,54c28,0 30,-2 30,-41c0,-22 -5,-49 -10,-60c-9,-16 -7,-19 12,-19c22,0 23,4 23,65l0,65l-64,0c-51,0 -62,-3 -53,-12z"/>
   <path id="svg_184" d="m8109,2950c-9,-5 -20,-21 -23,-34c-16,-64 45,-110 87,-67l22,22l-29,-12c-26,-12 -30,-11 -47,10c-28,34 -24,41 26,41c48,0 55,9 29,34c-17,18 -41,20 -65,6zm49,-17c2,-9 -7,-13 -28,-13c-28,0 -31,2 -20,15c15,18 41,16 48,-2z"/>
   <path id="svg_185" d="m8210,2950c-10,-6 -11,-10 -2,-10c16,0 17,-141 0,-158c-9,-9 -4,-12 23,-11c18,0 28,3 22,6c-7,2 -13,17 -13,33c0,23 4,27 19,23c50,-13 88,55 57,102c-18,27 -45,32 -64,13c-9,-9 -12,-9 -12,0c0,14 -10,15 -30,2zm85,-60c0,-41 -2,-45 -25,-45c-21,0 -26,5 -28,33c-5,47 4,64 30,60c20,-3 23,-9 23,-48z"/>
   <path id="svg_186" d="m8348,2953c7,-3 12,-25 12,-58c0,-33 -5,-55 -12,-58c-7,-3 8,-6 34,-6c44,-1 78,16 78,39c0,13 -34,30 -59,30c-26,0 -29,35 -3,49c13,8 9,10 -23,10c-22,0 -34,-3 -27,-6zm77,-88c0,-13 -8,-21 -22,-23c-19,-3 -23,1 -23,23c0,22 4,26 23,23c14,-2 22,-10 22,-23z"/>
   <path id="svg_187" d="m8618,2953c7,-3 12,-25 12,-58c0,-33 -5,-55 -12,-58c-7,-3 5,-6 27,-6c32,0 36,2 23,10c-19,11 -25,49 -8,49c5,0 16,-13 25,-30c10,-19 23,-30 36,-30c20,0 20,1 -5,31c-14,17 -26,34 -26,39c0,20 13,40 26,40c8,0 14,5 14,10c0,20 -21,9 -38,-20c-9,-16 -23,-30 -29,-30c-19,0 -16,38 5,49c13,8 9,10 -23,10c-22,0 -34,-3 -27,-6z"/>
   <path id="svg_188" d="m8773,2954c-15,-7 -17,-34 -3,-34c6,0 10,7 10,16c0,21 34,14 38,-9c2,-10 -5,-20 -20,-26c-37,-14 -53,-38 -38,-56c15,-18 36,-19 46,-3c4,6 3,8 -3,5c-6,-4 -16,0 -22,7c-10,11 -7,18 11,30c22,16 23,16 26,-11c5,-36 18,-51 34,-35c9,9 9,12 1,12c-7,0 -13,21 -15,53c-3,47 -5,52 -28,54c-14,1 -31,-1 -37,-3z"/>
   <path id="svg_189" d="m8878,2953c7,-3 12,-25 12,-58c0,-33 -5,-55 -12,-58c-7,-3 5,-6 27,-6c32,0 36,2 23,10c-19,11 -25,49 -8,49c5,0 16,-13 25,-30c10,-19 23,-30 36,-30c20,0 20,1 -5,31c-14,17 -26,34 -26,39c0,20 13,40 26,40c8,0 14,5 14,10c0,20 -21,9 -38,-20c-9,-16 -23,-30 -29,-30c-19,0 -16,38 5,49c13,8 9,10 -23,10c-22,0 -34,-3 -27,-6z"/>
   <path id="svg_190" d="m9278,2953c7,-3 12,-25 12,-58c0,-33 -5,-55 -12,-58c-7,-3 6,-6 29,-6c56,-1 73,7 73,34c0,23 -17,35 -51,35c-24,0 -26,35 -1,49c13,8 9,10 -23,10c-22,0 -34,-3 -27,-6zm77,-88c0,-13 -8,-21 -22,-23c-19,-3 -23,1 -23,23c0,22 4,26 23,23c14,-2 22,-10 22,-23z"/>
   <path id="svg_191" d="m9393,2949c20,-12 24,-88 5,-107c-9,-9 -7,-12 13,-12c23,0 24,2 20,56c-2,40 1,59 10,65c9,6 0,9 -26,9c-32,-1 -36,-3 -22,-11z"/>
   <path id="svg_192" d="m2170,2861c0,-8 -7,-11 -15,-7c-9,3 -15,0 -15,-9c0,-20 29,-19 37,0c3,9 3,19 -1,22c-3,4 -6,1 -6,-6z"/>
   <path id="svg_193" d="m4880,2844c0,-17 22,-14 28,4c2,7 -3,12 -12,12c-9,0 -16,-7 -16,-16z"/>
   <path id="svg_194" d="m7510,2845c0,-8 5,-15 10,-15c6,0 10,7 10,15c0,8 -4,15 -10,15c-5,0 -10,-7 -10,-15z"/>
   <path id="svg_195" d="m8487,2854c-12,-12 -8,-24 9,-24c11,0 14,-5 9,-17c-5,-14 -3,-15 5,-7c7,7 10,20 8,30c-3,19 -20,28 -31,18z"/>
   <path id="svg_196" d="m6013,2773c20,-2 54,-2 75,0c20,2 3,4 -38,4c-41,0 -58,-2 -37,-4z"/>
   <path id="svg_197" d="m6808,2773c23,-2 59,-2 80,0c20,2 1,4 -43,4c-44,0 -61,-2 -37,-4z"/>
   <path id="svg_198" d="m6660,2526c0,-9 7,-19 15,-22c24,-10 65,5 65,23c0,14 -2,14 -20,-2c-19,-17 -21,-17 -40,0c-18,17 -20,17 -20,1z"/>
   <path id="svg_199" d="m178,2468c16,-16 16,-90 0,-106c-9,-9 -6,-12 14,-12c20,0 25,4 21,18c-2,10 6,27 21,41l26,24l0,-35c0,-20 -6,-39 -12,-41c-7,-3 3,-6 22,-6c26,-1 31,2 22,11c-16,16 -16,90 0,106c9,9 6,12 -14,12c-20,0 -25,-4 -21,-18c2,-10 -6,-27 -21,-41l-26,-24l0,35c0,20 6,39 13,41c6,3 -4,6 -22,6c-27,1 -32,-2 -23,-11z"/>
   <path id="svg_200" d="m438,2473c7,-3 12,-25 12,-58c0,-33 -5,-55 -12,-58c-7,-3 3,-6 22,-6c26,-1 31,2 22,11c-7,7 -12,34 -12,60c0,47 1,48 30,48c29,0 30,-1 30,-48c0,-26 -5,-53 -12,-60c-9,-9 -4,-12 23,-11c18,0 28,3 22,6c-8,3 -13,25 -13,58c0,33 5,55 13,58c6,3 -22,5 -63,5c-41,0 -69,-2 -62,-5z"/>
   <path id="svg_201" d="m604,2472c3,-5 19,-7 36,-4l30,4l0,-50c0,-38 -4,-54 -17,-61c-14,-8 -10,-10 22,-10c22,0 34,3 28,6c-8,3 -13,25 -13,58c0,33 5,55 13,58c6,3 -14,6 -46,6c-32,1 -56,-3 -53,-7z"/>
   <path id="svg_202" d="m743,2474c-15,-7 -17,-34 -3,-34c6,0 10,7 10,16c0,21 34,14 38,-9c2,-10 -5,-20 -20,-26c-37,-14 -53,-38 -38,-56c15,-18 36,-19 46,-3c4,6 3,8 -3,5c-6,-4 -16,0 -22,7c-10,11 -7,18 11,30c22,16 23,16 26,-11c5,-36 18,-51 34,-35c9,9 9,12 1,12c-7,0 -13,21 -15,53c-3,47 -5,52 -28,54c-14,1 -31,-1 -37,-3z"/>
   <path id="svg_203" d="m848,2473c7,-3 12,-25 12,-58c0,-33 -5,-55 -12,-58c-7,-3 3,-6 22,-6c26,-1 31,2 22,11c-7,7 -12,20 -12,30c0,13 8,18 30,18c25,0 30,-4 30,-24c0,-13 -6,-27 -12,-29c-7,-3 3,-6 21,-6c27,-1 32,2 23,11c-7,7 -12,30 -12,53c0,23 5,46 12,53c9,9 4,12 -23,11c-18,0 -28,-3 -21,-6c6,-2 12,-16 12,-29c0,-20 -5,-24 -30,-24c-22,0 -30,5 -30,18c0,10 5,23 12,30c9,9 4,12 -22,11c-19,0 -29,-3 -22,-6z"/>
   <path id="svg_204" d="m998,2473c7,-3 12,-25 12,-58c0,-33 -5,-55 -12,-58c-7,-3 3,-6 22,-6c26,-1 31,2 22,11c-9,9 -7,18 10,37c13,14 16,20 8,14c-8,-7 -18,-13 -22,-13c-13,0 -9,55 4,68c9,9 4,12 -22,11c-19,0 -29,-3 -22,-6z"/>
   <path id="svg_205" d="m1076,2472c16,-11 18,-103 2,-113c-8,-6 -1,-9 22,-9c26,0 31,3 22,12c-16,16 -16,90 0,106c9,9 4,12 -22,12c-19,0 -30,-4 -24,-8z"/>
   <path id="svg_206" d="m1150,2470c-10,-6 -11,-10 -2,-10c16,0 17,-141 0,-158c-9,-9 -4,-12 23,-11c18,0 28,3 22,6c-7,2 -13,17 -13,33c0,23 4,27 19,23c50,-13 88,55 57,102c-18,27 -45,32 -64,13c-9,-9 -12,-9 -12,0c0,14 -10,15 -30,2zm85,-60c0,-41 -2,-45 -25,-45c-21,0 -26,5 -28,33c-5,47 4,64 30,60c20,-3 23,-9 23,-48z"/>
   <path id="svg_207" d="m1307,2462c-36,-39 -10,-112 39,-112c25,0 38,10 53,37c16,31 14,50 -9,73c-25,25 -62,26 -83,2zm61,-4c19,-19 15,-87 -5,-95c-20,-8 -53,30 -53,61c0,24 17,46 35,46c6,0 16,-5 23,-12z"/>
   <path id="svg_208" d="m1435,2415l0,-66l44,3c53,4 78,31 48,53c-12,8 -14,15 -8,20c16,10 13,42 -5,49c-9,3 -30,6 -47,6l-32,0l0,-65zm70,30c0,-13 -8,-21 -22,-23c-19,-3 -23,1 -23,23c0,22 4,26 23,23c14,-2 22,-10 22,-23zm0,-60c0,-13 -8,-21 -22,-23c-19,-3 -23,1 -23,23c0,22 4,26 23,23c14,-2 22,-10 22,-23z"/>
   <path id="svg_209" d="m1577,2474c-10,-11 -9,-34 3,-34c6,0 10,7 10,16c0,21 34,14 38,-8c2,-12 -8,-22 -33,-32c-29,-12 -36,-20 -33,-38c3,-26 34,-36 52,-17c8,9 8,10 0,6c-15,-8 -35,15 -26,29c4,6 15,13 25,17c14,5 17,1 17,-28c0,-34 20,-49 35,-25c3,6 2,10 -4,10c-5,0 -11,24 -13,53c-3,50 -4,52 -33,55c-17,2 -34,0 -38,-4z"/>
   <path id="svg_210" d="m1704,2472c3,-5 19,-7 36,-4l30,4l0,-50c0,-38 -4,-54 -17,-61c-14,-8 -10,-10 22,-10c22,0 34,3 28,6c-8,3 -13,25 -13,58c0,33 5,55 13,58c6,3 -14,6 -46,6c-32,1 -56,-3 -53,-7z"/>
   <path id="svg_211" d="m1828,2468c7,-7 12,-30 12,-53c0,-23 -5,-46 -12,-53c-9,-9 -4,-12 23,-11c18,0 28,3 22,6c-7,2 -13,10 -13,17c0,13 41,56 53,56c11,0 8,-39 -3,-61c-9,-16 -7,-19 12,-19c22,0 23,4 23,65c0,60 -2,65 -22,65c-15,0 -20,-5 -16,-18c2,-10 -6,-27 -21,-41l-26,-24l0,35c0,20 6,39 13,41c6,3 -4,6 -22,6c-27,1 -32,-2 -23,-11z"/>
   <path id="svg_212" d="m2158,2473c7,-3 12,-25 12,-58c0,-33 -5,-55 -12,-58c-7,-3 3,-6 22,-6c26,-1 31,2 22,11c-7,7 -12,20 -12,30c0,13 8,18 30,18c25,0 30,-4 30,-24c0,-13 -6,-27 -12,-29c-7,-3 3,-6 22,-6c26,-1 31,2 22,11c-7,7 -12,30 -12,53c0,23 5,46 12,53c9,9 4,12 -22,11c-19,0 -29,-3 -22,-6c6,-2 12,-16 12,-29c0,-20 -5,-24 -30,-24c-22,0 -30,5 -30,18c0,10 5,23 12,30c9,9 4,12 -22,11c-19,0 -29,-3 -22,-6z"/>
   <path id="svg_213" d="m2308,2473c7,-3 12,-25 12,-58c0,-33 -5,-55 -12,-58c-7,-3 3,-6 22,-6c26,-1 31,2 22,11c-9,9 -7,18 10,37c13,14 16,20 8,14c-8,-7 -18,-13 -22,-13c-13,0 -9,55 4,68c9,9 4,12 -22,11c-19,0 -29,-3 -22,-6z"/>
   <path id="svg_214" d="m2386,2472c16,-11 18,-103 2,-113c-8,-6 -1,-9 22,-9c26,0 31,3 22,12c-7,7 -12,30 -12,53c0,23 5,46 12,53c9,9 4,12 -22,12c-19,0 -30,-4 -24,-8z"/>
   <path id="svg_215" d="m2458,2473c7,-3 12,-25 12,-58c0,-33 -5,-55 -12,-58c-7,-3 5,-6 27,-6c32,0 36,2 23,10c-19,11 -25,49 -8,49c5,0 16,-13 25,-30c10,-19 23,-30 36,-30c20,0 20,1 -5,31c-14,17 -26,34 -26,39c0,20 13,40 26,40c8,0 14,5 14,10c0,20 -21,9 -38,-20c-9,-16 -23,-30 -29,-30c-19,0 -16,38 5,49c13,8 9,10 -23,10c-22,0 -34,-3 -27,-6z"/>
   <path id="svg_216" d="m2590,2471c0,-5 9,-7 20,-4c18,5 20,0 20,-50c0,-35 -5,-57 -12,-60c-7,-3 5,-6 27,-6c32,0 36,2 23,10c-13,7 -18,23 -18,59c0,43 3,50 19,50c11,0 22,-6 24,-12c3,-8 6,-6 6,5c1,14 -8,17 -54,17c-30,0 -55,-4 -55,-9z"/>
   <path id="svg_217" d="m2737,2462c-21,-23 -22,-76 -1,-96c36,-37 94,-6 94,51c0,54 -59,83 -93,45zm67,-23c14,-41 0,-81 -27,-77c-26,4 -43,44 -33,82c9,36 47,32 60,-5z"/>
   <path id="svg_218" d="m2978,2468c16,-16 16,-90 0,-106c-9,-9 -6,-12 14,-12c20,0 25,4 21,18c-2,10 6,27 21,41l26,24l0,-35c0,-20 -6,-39 -12,-41c-7,-3 3,-6 22,-6c26,-1 31,2 22,11c-7,7 -12,30 -12,53c0,23 5,46 12,53c9,9 6,12 -14,12c-20,0 -25,-4 -21,-18c2,-10 -6,-27 -21,-41l-26,-24l0,35c0,20 6,39 13,41c6,3 -4,6 -22,6c-27,1 -32,-2 -23,-11z"/>
   <path id="svg_219" d="m3120,2458c0,-21 1,-21 14,-3c8,11 19,16 30,12c20,-8 21,-36 1,-44c-14,-5 -13,-8 4,-20c27,-19 16,-46 -16,-40c-16,3 -21,1 -15,-5c14,-14 53,-5 66,15c9,14 7,21 -5,30c-12,9 -13,16 -6,28c17,28 1,49 -38,49c-29,0 -35,-3 -35,-22z"/>
   <path id="svg_220" d="m3348,2473c7,-3 12,-25 12,-58c0,-33 -5,-55 -12,-58c-7,-3 3,-6 22,-6c26,-1 31,2 22,11c-13,13 -16,48 -4,48c4,0 16,-13 25,-30c10,-17 27,-30 37,-30c17,0 17,2 -5,26c-24,26 -29,38 -25,59c1,6 -4,4 -11,-2c-7,-7 -17,-13 -21,-13c-12,0 -9,35 4,48c9,9 4,12 -22,11c-19,0 -29,-3 -22,-6z"/>
   <path id="svg_221" d="m3427,2473c-13,-13 -7,-21 13,-16c11,3 20,9 20,14c0,10 -24,12 -33,2z"/>
   <path id="svg_222" d="m3497,2474c-10,-11 -9,-34 3,-34c6,0 10,7 10,16c0,21 34,14 38,-8c2,-12 -8,-22 -33,-32c-29,-12 -36,-20 -33,-38c3,-26 34,-36 52,-17c8,9 8,10 0,6c-15,-8 -35,15 -26,29c4,6 15,13 25,17c14,5 17,1 17,-28c0,-34 20,-49 35,-25c3,6 2,10 -4,10c-5,0 -11,24 -13,53c-3,50 -4,52 -33,55c-17,2 -34,0 -38,-4z"/>
   <path id="svg_223" d="m3608,2473c7,-3 12,-25 12,-58c0,-33 -5,-55 -12,-58c-7,-3 3,-6 22,-6c26,-1 31,2 22,11c-7,7 -12,20 -12,30c0,13 8,18 30,18c22,0 30,-5 30,-18c0,-10 -5,-23 -12,-30c-9,-9 -4,-12 22,-11c19,0 29,3 23,6c-8,3 -13,25 -13,58c0,33 5,55 13,58c6,3 -4,6 -22,6c-27,1 -32,-2 -23,-11c7,-7 12,-20 12,-30c0,-13 -8,-18 -30,-18c-22,0 -30,5 -30,18c0,10 5,23 12,30c9,9 4,12 -22,11c-19,0 -29,-3 -22,-6z"/>
   <path id="svg_224" d="m3778,2473c19,-7 14,-67 -8,-96c-22,-28 -29,-60 -8,-39c7,7 30,12 53,12c23,0 46,-5 53,-12c9,-9 12,-8 12,4c0,9 -4,20 -10,23c-14,9 -12,89 2,103c9,9 -1,12 -47,11c-33,0 -54,-3 -47,-6zm62,-58c0,-55 0,-55 -31,-55c-26,0 -30,3 -23,18c4,9 9,34 12,55c3,28 9,37 23,37c16,0 19,-8 19,-55z"/>
   <path id="svg_225" d="m3898,2473c7,-3 12,-25 12,-58c0,-33 -5,-55 -12,-58c-7,-3 3,-6 22,-6c26,-1 31,2 22,11c-9,9 -7,18 10,37c13,14 16,20 8,14c-8,-7 -18,-13 -22,-13c-13,0 -9,55 4,68c9,9 4,12 -22,11c-19,0 -29,-3 -22,-6z"/>
   <path id="svg_226" d="m3976,2472c16,-11 18,-103 2,-113c-8,-6 -1,-9 22,-9c26,0 31,3 22,12c-16,16 -16,90 0,106c9,9 4,12 -22,12c-19,0 -30,-4 -24,-8z"/>
   <path id="svg_227" d="m4072,2466c7,-8 15,-10 16,-5c2,5 12,9 23,9c16,0 19,-7 19,-55c0,-55 0,-55 -30,-55c-28,0 -30,2 -20,21c6,11 9,30 7,42c-4,18 -5,17 -6,-5c0,-16 -10,-37 -21,-48c-11,-11 -20,-28 -20,-37c1,-17 1,-17 11,0c12,20 88,24 107,5c9,-9 12,-8 12,4c0,9 -4,20 -10,23c-14,9 -12,89 2,103c9,9 -1,12 -45,12c-49,0 -56,-2 -45,-14z"/>
   <path id="svg_228" d="m4207,2474c-10,-11 -9,-34 3,-34c6,0 10,7 10,16c0,21 34,14 38,-8c2,-12 -8,-22 -33,-32c-29,-12 -36,-20 -33,-38c3,-26 34,-36 52,-17c8,9 8,10 0,6c-15,-8 -35,15 -26,29c4,6 15,13 25,17c14,5 17,1 17,-28c0,-34 20,-49 35,-25c3,6 2,10 -4,10c-5,0 -11,24 -13,53c-3,50 -4,52 -33,55c-17,2 -34,0 -38,-4z"/>
   <path id="svg_229" d="m4310,2471c0,-5 9,-7 20,-4c18,5 20,0 20,-50c0,-35 -5,-57 -12,-60c-7,-3 5,-6 27,-6c32,0 36,2 23,10c-13,7 -18,23 -18,59c0,43 3,50 19,50c11,0 22,-6 24,-12c3,-8 6,-6 6,5c1,14 -8,17 -54,17c-30,0 -55,-4 -55,-9z"/>
   <path id="svg_230" d="m4457,2462c-21,-23 -22,-76 -1,-96c36,-37 94,-6 94,51c0,54 -59,83 -93,45zm67,-23c14,-41 0,-81 -27,-77c-26,4 -43,44 -33,82c9,36 47,32 60,-5z"/>
   <path id="svg_231" d="m4578,2473c7,-3 12,-25 12,-58c0,-33 -5,-55 -12,-59c-7,-3 11,-4 41,-3c40,1 57,7 65,20c9,14 7,21 -5,30c-12,9 -14,16 -6,29c18,28 -9,48 -62,47c-25,0 -40,-3 -33,-6zm75,-17c6,-16 -11,-36 -30,-36c-7,0 -13,11 -13,25c0,18 5,25 19,25c10,0 21,-6 24,-14zm2,-71c0,-13 -8,-21 -22,-23c-19,-3 -23,1 -23,23c0,22 4,26 23,23c14,-2 22,-10 22,-23z"/>
   <path id="svg_232" d="m4828,2468c16,-16 16,-90 0,-106c-9,-9 -4,-12 23,-11c18,0 28,3 22,6c-7,2 -13,16 -13,29c0,20 5,24 30,24c22,0 30,-5 30,-18c0,-10 -5,-23 -12,-30c-9,-9 -7,-12 13,-12c23,0 24,3 24,65c0,62 -1,65 -24,65c-20,0 -22,-3 -13,-12c7,-7 12,-20 12,-30c0,-13 -8,-18 -30,-18c-25,0 -30,4 -30,24c0,13 6,27 13,29c6,3 -4,6 -22,6c-27,1 -32,-2 -23,-11z"/>
   <path id="svg_233" d="m4999,2470c-9,-5 -20,-21 -23,-34c-16,-64 45,-110 87,-67l22,22l-29,-12c-26,-12 -30,-11 -47,10c-28,34 -24,41 26,41c48,0 55,9 29,34c-17,18 -41,20 -65,6zm49,-17c2,-9 -7,-13 -28,-13c-28,0 -31,2 -20,15c15,18 41,16 48,-2z"/>
   <path id="svg_234" d="m5230,2460c-44,-44 -8,-124 47,-104c14,5 28,15 31,22c3,11 1,11 -16,1c-18,-11 -24,-10 -42,6c-25,22 -23,63 3,79c14,9 20,7 28,-6c12,-21 29,-24 29,-4c0,30 -52,34 -80,6z"/>
   <path id="svg_235" d="m5338,2473c7,-3 12,-25 12,-58c0,-33 -5,-55 -12,-58c-7,-3 1,-5 17,-5c17,0 24,2 18,5c-8,3 -13,23 -13,51l1,47l23,-55l24,-54l16,38c19,46 20,60 2,27c-13,-24 -13,-23 -31,23c-15,39 -22,46 -44,45c-14,0 -20,-3 -13,-6z"/>
   <path id="svg_236" d="m5446,2464c-8,-22 -8,-26 4,-19c13,8 13,-51 0,-76c-9,-16 -7,-19 12,-19c22,0 23,4 23,65c0,54 -3,65 -16,65c-9,0 -20,-7 -23,-16z"/>
   <path id="svg_237" d="m5544,2472c-15,-10 -34,-47 -34,-66c0,-22 36,-56 60,-56c29,0 60,35 60,68c0,46 -51,78 -86,54zm60,-45c8,-31 7,-41 -7,-55c-24,-23 -51,-5 -55,37c-5,46 4,63 30,59c17,-2 25,-13 32,-41z"/>
   <path id="svg_238" d="m5650,2470c0,-5 7,-10 15,-10c8,0 19,-9 25,-20c9,-17 6,-27 -16,-55c-22,-29 -23,-35 -10,-35c9,0 25,13 34,30c9,16 20,30 25,30c11,0 8,-35 -5,-48c-9,-9 -4,-12 23,-11c18,0 28,3 22,6c-15,5 -18,53 -4,53c5,0 14,-13 21,-30c8,-19 20,-30 32,-30c18,0 17,2 -6,33c-30,39 -26,77 7,77c15,0 18,3 10,11c-14,14 -32,4 -43,-27c-5,-13 -14,-24 -20,-24c-14,0 -13,33 2,48c9,9 4,12 -22,12c-26,0 -31,-3 -22,-12c14,-14 16,-48 2,-48c-5,0 -16,14 -25,30c-15,28 -45,42 -45,20z"/>
   <path id="svg_239" d="m5866,2464c-9,-8 -16,-31 -16,-49c0,-60 49,-85 86,-44c19,22 19,22 -3,10c-28,-14 -58,-1 -66,29c-5,18 0,20 39,20c48,0 61,20 25,40c-27,14 -47,13 -65,-6zm52,-11c2,-8 -6,-13 -22,-13c-25,0 -33,10 -19,24c10,10 36,3 41,-11z"/>
   <path id="svg_240" d="m5966,2464c-9,-24 -7,-31 5,-11c5,9 17,17 24,17c19,0 21,-106 3,-113c-7,-3 5,-6 27,-6c32,0 36,2 23,10c-24,13 -26,109 -3,109c7,0 19,-8 24,-17c9,-16 10,-16 11,5c0,20 -5,22 -54,22c-40,0 -55,-4 -60,-16z"/>
   <path id="svg_241" d="m6208,2473c7,-3 12,-25 12,-58c0,-33 -5,-55 -12,-58c-7,-3 3,-6 22,-6c26,-1 31,2 22,11c-7,7 -12,34 -12,60c0,47 1,48 30,48c30,0 30,-1 30,-54c0,-34 -5,-56 -12,-59c-7,-3 3,-6 22,-6c26,-1 31,2 22,11c-7,7 -12,30 -12,53c0,23 5,46 12,53c9,9 -5,12 -62,11c-41,0 -69,-3 -62,-6z"/>
   <path id="svg_242" d="m6361,2471c-9,-6 -10,-11 -2,-15c15,-10 14,-139 -1,-154c-9,-9 -4,-12 23,-11c18,0 28,3 22,6c-7,2 -13,17 -13,32c0,24 3,28 23,24c34,-7 59,27 55,73c-4,45 -28,65 -58,46c-12,-7 -20,-8 -20,-2c0,12 -10,13 -29,1zm77,-23c29,-29 3,-98 -33,-84c-15,5 -22,76 -8,89c10,11 28,8 41,-5z"/>
   <path id="svg_243" d="m6517,2462c-21,-23 -22,-76 -1,-96c36,-37 94,-6 94,51c0,54 -59,83 -93,45zm67,-23c14,-41 0,-81 -27,-77c-26,4 -43,44 -33,82c9,36 47,32 60,-5z"/>
   <path id="svg_244" d="m6638,2473c7,-3 12,-25 12,-58c0,-33 -5,-55 -12,-58c-7,-3 2,-6 21,-6c27,-1 31,2 22,12c-8,10 -7,17 1,25c9,9 9,12 0,12c-7,0 -12,13 -12,28c0,15 5,33 12,40c9,9 4,12 -22,11c-19,0 -29,-3 -22,-6z"/>
   <path id="svg_245" d="m6718,2468c9,-9 8,-16 -6,-32c-16,-20 -16,-20 1,-7c15,12 17,10 17,-21c0,-19 -5,-39 -12,-46c-9,-9 -4,-12 23,-11c18,0 28,3 22,6c-8,3 -13,25 -13,58c0,33 5,55 13,58c6,3 -4,6 -22,6c-27,1 -32,-2 -23,-11z"/>
   <path id="svg_246" d="m6781,2463c0,-11 3,-13 6,-5c2,6 13,12 24,12c16,0 19,-7 19,-48c0,-26 -5,-53 -12,-60c-9,-9 -4,-12 23,-11c18,0 28,3 22,6c-8,3 -13,25 -13,60c0,50 2,55 20,50c11,-3 20,-1 20,4c0,5 -25,9 -55,9c-46,0 -55,-3 -54,-17z"/>
   <path id="svg_247" d="m6908,2473c7,-3 12,-25 12,-58c0,-33 -5,-55 -12,-58c-7,-3 3,-6 22,-6c26,-1 31,2 22,11c-9,9 -7,18 10,37c13,14 16,20 8,14c-8,-7 -18,-13 -22,-13c-13,0 -9,55 4,68c9,9 4,12 -22,11c-19,0 -29,-3 -22,-6z"/>
   <path id="svg_248" d="m6986,2472c16,-11 18,-103 2,-113c-8,-6 -1,-9 22,-9c26,0 31,3 22,12c-7,7 -12,30 -12,53c0,23 5,46 12,53c9,9 4,12 -22,12c-19,0 -30,-4 -24,-8z"/>
   <path id="svg_249" d="m7178,2468c7,-7 12,-30 12,-53c0,-23 -5,-46 -12,-53c-9,-9 -3,-12 29,-12c23,0 48,3 57,6c18,7 22,54 6,54c-7,0 -7,7 0,21c17,31 -4,49 -58,49c-36,0 -43,-3 -34,-12zm67,-23c0,-11 -8,-21 -17,-23c-14,-3 -18,3 -18,23c0,20 4,26 18,23c9,-2 17,-12 17,-23zm10,-60c0,-13 -8,-21 -22,-23c-19,-3 -23,1 -23,23c0,22 4,26 23,23c14,-2 22,-10 22,-23z"/>
   <path id="svg_250" d="m7327,2462c-34,-38 -13,-112 32,-112c20,0 58,37 48,47c-4,3 -7,1 -7,-5c0,-17 -39,-25 -55,-12c-21,17 -19,79 1,87c10,4 22,-1 30,-11c7,-10 18,-15 24,-11c17,10 -8,35 -35,35c-12,0 -29,-8 -38,-18z"/>
   <path id="svg_251" d="m7482,2474c9,-3 19,-12 22,-20c4,-10 -3,-14 -25,-14c-25,0 -30,3 -25,18c5,14 4,14 -9,-2c-42,-55 25,-142 73,-94c19,19 14,29 -7,16c-17,-10 -23,-9 -40,6c-35,31 -26,46 25,46c46,0 46,0 32,23c-9,12 -26,23 -39,24c-13,1 -17,-1 -7,-3z"/>
   <path id="svg_252" d="m7675,2415l0,-66l44,3c53,4 78,31 48,53c-12,8 -14,15 -8,20c16,10 13,42 -5,49c-9,3 -30,6 -47,6l-32,0l0,-65zm70,30c0,-13 -8,-21 -22,-23c-19,-3 -23,1 -23,23c0,22 4,26 23,23c14,-2 22,-10 22,-23zm0,-60c0,-13 -8,-21 -22,-23c-19,-3 -23,1 -23,23c0,22 4,26 23,23c14,-2 22,-10 22,-23z"/>
   <path id="svg_253" d="m7820,2460c-44,-44 -8,-124 47,-104c14,5 28,15 31,22c3,11 1,11 -16,1c-18,-11 -24,-10 -42,6c-25,22 -23,63 3,79c14,9 20,7 28,-6c12,-21 29,-24 29,-4c0,30 -52,34 -80,6z"/>
   <path id="svg_254" d="m7920,2471c0,-5 9,-7 20,-4c18,5 20,0 20,-50c0,-35 -5,-57 -12,-60c-7,-3 5,-6 27,-6c32,0 36,2 23,10c-13,7 -18,23 -18,59c0,43 3,50 19,50c11,0 22,-6 24,-12c3,-8 6,-6 6,5c1,14 -8,17 -54,17c-30,0 -55,-4 -55,-9z"/>
   <path id="svg_255" d="m8071,2428c16,-29 29,-62 29,-73c0,-26 -18,-45 -35,-39c-7,3 -16,1 -20,-5c-10,-17 25,-25 40,-10c8,8 29,51 48,97c31,73 33,82 17,82c-13,0 -17,-5 -13,-19c3,-10 -2,-31 -10,-47l-15,-28l-16,33c-10,18 -15,39 -12,47c4,10 -2,14 -18,14l-24,0l29,-52z"/>
   <path id="svg_256" d="m8188,2473c7,-3 12,-25 12,-58c0,-33 -5,-55 -12,-58c-7,-3 3,-6 22,-6c26,-1 31,2 22,11c-7,7 -12,34 -12,60c0,47 1,48 30,48c29,0 30,-1 30,-48c0,-26 -5,-53 -12,-60c-9,-9 -4,-12 23,-11c18,0 28,3 22,6c-8,3 -13,25 -13,58c0,33 5,55 13,58c6,3 -22,5 -63,5c-41,0 -69,-2 -62,-5z"/>
   <path id="svg_257" d="m8338,2473c7,-3 12,-25 12,-58c0,-33 -5,-55 -12,-58c-7,-3 2,-6 21,-6c27,-1 31,2 22,12c-8,10 -7,17 1,25c9,9 9,12 0,12c-7,0 -12,13 -12,28c0,15 5,33 12,40c9,9 4,12 -22,11c-19,0 -29,-3 -22,-6z"/>
   <path id="svg_258" d="m8418,2468c9,-9 8,-16 -6,-32c-16,-20 -16,-20 1,-7c15,12 17,10 17,-21c0,-19 -5,-39 -12,-46c-9,-9 -4,-12 23,-11c18,0 28,3 22,6c-8,3 -13,25 -13,58c0,33 5,55 13,58c6,3 -4,6 -22,6c-27,1 -32,-2 -23,-11z"/>
   <path id="svg_259" d="m8481,2463c0,-11 3,-13 6,-5c2,6 13,12 24,12c16,0 19,-7 19,-48c0,-26 -5,-53 -12,-60c-9,-9 -4,-12 23,-11c18,0 28,3 22,6c-8,3 -13,25 -13,60c0,50 2,55 20,50c11,-3 20,-1 20,4c0,5 -25,9 -55,9c-46,0 -55,-3 -54,-17z"/>
   <path id="svg_260" d="m8627,2462c-39,-43 -5,-121 46,-108c14,3 28,14 31,23c6,15 5,16 -5,6c-17,-17 -34,-16 -53,3c-28,28 -20,44 24,44c41,0 52,14 28,38c-18,18 -53,15 -71,-6zm53,-7c11,-13 8,-15 -19,-15c-30,0 -39,9 -24,23c11,11 30,8 43,-8z"/>
   <path id="svg_261" d="m8759,2424c3,-49 1,-56 -13,-51c-10,4 -16,1 -16,-9c0,-9 7,-14 18,-12c13,2 18,15 20,61c3,53 5,57 27,57c23,0 25,-4 25,-44c0,-27 -6,-51 -16,-60c-14,-15 -13,-16 13,-16c28,0 28,0 28,65l0,65l-45,0l-45,0l4,-56z"/>
   <path id="svg_262" d="m8878,2468c7,-7 12,-30 12,-53c0,-23 -5,-46 -12,-53c-9,-9 -2,-12 33,-12c47,0 69,13 69,41c0,18 -19,29 -51,29c-13,0 -19,7 -19,24c0,13 6,27 13,29c6,3 -4,6 -22,6c-27,1 -32,-2 -23,-11zm75,-72c6,-16 -11,-36 -30,-36c-7,0 -13,11 -13,25c0,18 5,25 19,25c10,0 21,-6 24,-14z"/>
   <path id="svg_263" d="m9008,2468c7,-7 12,-30 12,-53c0,-23 -5,-46 -12,-53c-9,-9 -4,-12 23,-11c18,0 28,3 22,6c-7,2 -13,16 -13,29c0,19 5,24 25,24c20,0 25,-5 25,-24c0,-13 -6,-27 -12,-29c-7,-3 3,-6 22,-6c26,-1 31,2 22,11c-7,7 -12,30 -12,53c0,23 5,46 12,53c9,9 4,12 -22,11c-19,0 -29,-3 -22,-6c6,-2 12,-16 12,-29c0,-19 -5,-24 -25,-24c-20,0 -25,5 -25,24c0,13 6,27 13,29c6,3 -4,6 -22,6c-27,1 -32,-2 -23,-11z"/>
   <path id="svg_264" d="m9158,2468c7,-7 12,-30 12,-53c0,-23 -5,-46 -12,-53c-9,-9 -2,-12 34,-12c52,0 79,21 61,48c-5,10 -22,18 -37,20c-20,3 -26,9 -26,27c0,13 6,26 13,28c6,3 -4,6 -22,6c-27,1 -32,-2 -23,-11zm67,-83c0,-11 -8,-21 -17,-23c-14,-3 -18,3 -18,23c0,20 4,26 18,23c9,-2 17,-12 17,-23z"/>
   <path id="svg_265" d="m9269,2471c9,-6 12,-25 10,-65c-3,-45 -1,-56 11,-56c12,0 14,11 12,50c-3,30 1,57 8,65c11,13 7,15 -21,15c-23,0 -30,-3 -20,-9z"/>
   <path id="svg_266" d="m9357,2462c-39,-43 -5,-121 46,-108c14,3 28,14 31,23c6,15 5,16 -5,6c-17,-17 -34,-16 -53,3c-28,28 -20,44 24,44c41,0 52,14 28,38c-18,18 -53,15 -71,-6zm53,-7c11,-13 8,-15 -19,-15c-30,0 -39,9 -24,23c11,11 30,8 43,-8z"/>
   <path id="svg_267" d="m610,2381c0,-8 -7,-11 -15,-7c-9,3 -15,0 -15,-9c0,-20 29,-19 37,0c3,9 3,19 -1,22c-3,4 -6,1 -6,-6z"/>
   <path id="svg_268" d="m1710,2381c0,-8 -7,-11 -15,-7c-9,3 -15,0 -15,-9c0,-20 29,-19 37,0c3,9 3,19 -1,22c-3,4 -6,1 -6,-6z"/>
   <path id="svg_269" d="m1980,2365c0,-8 7,-15 15,-15c9,0 12,-6 9,-17c-5,-16 -4,-16 6,0c6,10 9,25 6,33c-7,19 -36,18 -36,-1z"/>
   <path id="svg_270" d="m7975,2060c-33,-4 -43,-11 -57,-40c-47,-93 17,-195 82,-130c56,56 -14,145 -73,93c-19,-17 -19,-17 -12,7c12,39 25,50 61,50c18,0 36,5 39,11c10,14 6,15 -40,9zm19,-113c8,-31 7,-41 -7,-55c-24,-23 -51,-5 -55,37c-5,46 4,63 30,59c17,-2 25,-13 32,-41z"/>
   <path id="svg_271" d="m6370,2052c0,-15 24,-32 46,-32c24,0 51,26 40,38c-4,4 -12,-1 -17,-11c-12,-21 -38,-22 -45,-2c-6,16 -24,21 -24,7z"/>
   <path id="svg_272" d="m7440,2046c0,-9 7,-19 15,-22c24,-10 65,5 65,23c0,14 -2,14 -20,-2c-19,-17 -21,-17 -40,0c-18,17 -20,17 -20,1z"/>
   <path id="svg_273" d="m8470,2046c0,-9 7,-19 15,-22c24,-10 65,5 65,23c0,14 -2,14 -20,-2c-19,-17 -21,-17 -40,0c-18,17 -20,17 -20,1z"/>
   <path id="svg_274" d="m178,1988c16,-16 16,-90 0,-106c-9,-9 -6,-12 14,-12c20,0 25,4 21,18c-2,10 6,27 21,41l26,24l0,-35c0,-20 -6,-39 -12,-41c-7,-3 3,-6 22,-6c26,-1 31,2 22,11c-16,16 -16,90 0,106c9,9 6,12 -14,12c-20,0 -25,-4 -21,-18c2,-10 -6,-27 -21,-41l-26,-24l0,35c0,20 6,39 13,41c6,3 -4,6 -22,6c-27,1 -32,-2 -23,-11z"/>
   <path id="svg_275" d="m340,1980c-44,-44 -8,-124 47,-104c14,5 28,15 31,22c3,11 1,11 -16,1c-18,-11 -24,-10 -42,6c-25,22 -23,63 3,79c14,9 20,7 28,-6c12,-21 29,-24 29,-4c0,30 -52,34 -80,6z"/>
   <path id="svg_276" d="m448,1993c7,-3 12,-25 12,-58c0,-33 -5,-55 -12,-58c-7,-3 3,-6 22,-6c26,-1 31,2 22,11c-7,7 -12,34 -12,60c0,47 1,48 30,48c29,0 30,-1 30,-48c0,-26 -5,-53 -12,-60c-9,-9 -4,-12 23,-11c18,0 28,3 22,6c-8,3 -13,25 -13,58c0,33 5,55 13,58c6,3 -22,5 -63,5c-41,0 -69,-2 -62,-5z"/>
   <path id="svg_277" d="m598,1993c7,-3 12,-25 12,-58c0,-33 -5,-55 -12,-58c-7,-3 6,-6 29,-6c56,-1 73,7 73,34c0,23 -17,35 -51,35c-24,0 -26,35 -1,49c13,8 9,10 -23,10c-22,0 -34,-3 -27,-6zm77,-88c0,-13 -8,-21 -22,-23c-19,-3 -23,1 -23,23c0,22 4,26 23,23c14,-2 22,-10 22,-23z"/>
   <path id="svg_278" d="m713,1989c20,-12 24,-88 5,-107c-9,-9 -7,-12 12,-12c24,0 25,2 21,56c-2,40 1,59 10,65c9,6 0,9 -26,9c-32,-1 -36,-3 -22,-11z"/>
   <path id="svg_279" d="m780,1991c0,-5 9,-7 20,-4c18,5 20,0 20,-50c0,-35 -5,-57 -12,-60c-7,-3 5,-6 27,-6c32,0 36,2 23,10c-13,7 -18,23 -18,59c0,43 3,50 19,50c11,0 22,-6 24,-12c3,-8 6,-6 6,5c1,14 -8,17 -54,17c-30,0 -55,-4 -55,-9z"/>
   <path id="svg_280" d="m920,1985c-7,-9 -10,-19 -6,-23c4,-4 12,1 17,11c13,22 35,22 43,1c8,-20 10,-17 -32,-38c-25,-13 -32,-23 -30,-39c3,-19 9,-22 48,-22l44,0l-3,50c-1,28 -7,56 -13,63c-14,17 -53,15 -68,-3zm60,-65c0,-27 -38,-47 -47,-24c-4,11 1,22 12,30c26,19 35,17 35,-6z"/>
   <path id="svg_281" d="m1028,1993c7,-3 12,-25 12,-58c0,-33 -5,-55 -12,-58c-7,-3 3,-6 22,-6c26,-1 31,2 22,11c-7,7 -12,20 -12,30c0,13 8,18 30,18c25,0 30,-4 30,-24c0,-13 -6,-27 -12,-29c-7,-3 3,-6 22,-6c26,-1 31,2 22,11c-7,7 -12,30 -12,53c0,23 5,46 12,53c9,9 4,12 -22,11c-19,0 -29,-3 -22,-6c6,-2 12,-16 12,-29c0,-20 -5,-24 -30,-24c-22,0 -30,5 -30,18c0,10 5,23 12,30c9,9 4,12 -22,11c-19,0 -29,-3 -22,-6z"/>
   <path id="svg_282" d="m1178,1993c7,-3 12,-25 12,-58c0,-33 -5,-55 -12,-58c-7,-3 3,-6 22,-6c26,-1 31,2 22,11c-9,9 -7,18 10,37c13,14 16,20 8,14c-8,-7 -18,-13 -22,-13c-13,0 -9,55 4,68c9,9 4,12 -22,11c-19,0 -29,-3 -22,-6z"/>
   <path id="svg_283" d="m1256,1992c16,-11 18,-103 2,-113c-8,-6 -1,-9 22,-9c26,0 31,3 22,12c-7,7 -12,30 -12,53c0,23 5,46 12,53c9,9 4,12 -22,12c-19,0 -30,-4 -24,-8z"/>
   <path id="svg_284" d="m1343,1984c-3,-9 -1,-26 6,-37c11,-17 10,-24 -8,-48c-17,-23 -18,-29 -7,-29c8,0 23,14 33,30c9,17 21,30 25,30c12,0 9,-35 -4,-48c-9,-9 -4,-12 23,-11c18,0 28,3 22,6c-8,3 -13,25 -13,58c0,33 5,55 13,58c6,3 -10,6 -36,6c-35,1 -49,-3 -54,-15zm57,-19c0,-25 -23,-35 -35,-15c-10,16 2,40 20,40c9,0 15,-9 15,-25z"/>
   <path id="svg_285" d="m1598,1993c7,-3 12,-25 12,-58c0,-33 -5,-55 -12,-58c-7,-3 3,-6 22,-6c26,-1 31,2 22,11c-9,9 -7,18 10,37c13,14 16,20 8,14c-8,-7 -18,-13 -22,-13c-13,0 -9,55 4,68c9,9 4,12 -22,11c-19,0 -29,-3 -22,-6z"/>
   <path id="svg_286" d="m1676,1992c16,-11 18,-103 2,-113c-8,-6 -1,-9 22,-9c26,0 31,3 22,12c-7,7 -12,30 -12,53c0,23 5,46 12,53c9,9 4,12 -22,12c-19,0 -30,-4 -24,-8z"/>
   <path id="svg_287" d="m1818,1993c7,-3 12,-25 12,-58c0,-33 -5,-55 -12,-58c-7,-3 0,-6 17,-6c22,-1 26,2 17,11c-7,7 -12,30 -11,53l1,40l19,-40c10,-22 20,-44 23,-50c2,-6 9,-3 15,5c13,18 14,33 2,26c-5,-3 -16,15 -26,39c-14,38 -21,45 -43,44c-15,0 -21,-3 -14,-6z"/>
   <path id="svg_288" d="m1927,1983c-2,-10 -8,-27 -12,-38c-4,-13 -1,-12 9,5l15,25l1,-40c0,-23 -5,-46 -12,-53c-9,-9 -4,-12 23,-12c23,0 30,3 20,9c-9,6 -12,25 -10,65c3,47 1,56 -12,56c-9,0 -19,-8 -22,-17z"/>
   <path id="svg_289" d="m1998,1993c7,-3 12,-25 12,-58c0,-33 -5,-55 -12,-58c-7,-3 6,-6 29,-6c56,-1 73,7 73,34c0,23 -17,35 -51,35c-24,0 -26,35 -1,49c13,8 9,10 -23,10c-22,0 -34,-3 -27,-6zm77,-88c0,-13 -8,-21 -22,-23c-19,-3 -23,1 -23,23c0,22 4,26 23,23c14,-2 22,-10 22,-23z"/>
   <path id="svg_290" d="m2113,1989c20,-12 24,-88 5,-107c-9,-9 -7,-12 13,-12c23,0 24,2 20,56c-2,40 1,59 10,65c9,6 0,9 -26,9c-32,-1 -36,-3 -22,-11z"/>
   <path id="svg_291" d="m2270,1980c-26,-26 -26,-64 1,-91c26,-26 57,-21 78,11c15,25 15,25 -5,8c-28,-24 -41,-23 -60,7c-14,21 -15,31 -6,50c13,28 40,33 48,10c8,-19 24,-20 24,-1c0,30 -52,34 -80,6z"/>
   <path id="svg_292" d="m2378,1993c7,-3 12,-25 12,-58c0,-33 -5,-55 -12,-58c-7,-3 0,-6 17,-6c22,-1 26,2 17,11c-7,7 -12,30 -11,53l1,40l19,-40c10,-22 20,-44 23,-50c2,-6 9,-3 15,5c13,18 14,33 2,26c-5,-3 -16,15 -26,39c-14,38 -21,45 -43,44c-15,0 -21,-3 -14,-6z"/>
   <path id="svg_293" d="m2487,1983c-2,-10 -8,-27 -12,-38c-4,-13 -1,-12 9,5l15,25l1,-40c0,-23 -5,-46 -12,-53c-9,-9 -4,-12 23,-12c23,0 30,3 20,9c-9,6 -12,25 -10,65c3,47 1,56 -12,56c-9,0 -19,-8 -22,-17z"/>
   <path id="svg_294" d="m2577,1982c-21,-23 -22,-76 -1,-96c36,-37 94,-6 94,51c0,54 -59,83 -93,45zm67,-23c14,-41 0,-81 -27,-77c-26,4 -43,44 -33,82c9,36 47,32 60,-5z"/>
   <path id="svg_295" d="m2695,1990c-3,-5 3,-10 14,-10c12,0 21,-5 21,-12c0,-6 3,-8 6,-5c8,7 -14,37 -27,37c-4,0 -11,-4 -14,-10z"/>
   <path id="svg_296" d="m2758,1993c6,-2 12,-16 12,-30c0,-16 -5,-23 -12,-20c-7,2 -25,-13 -40,-34c-24,-33 -25,-39 -10,-39c9,0 26,15 36,33c19,31 20,31 24,8c2,-13 -2,-28 -10,-32c-8,-6 -1,-9 22,-9c26,0 31,3 22,12c-13,13 -16,48 -4,48c4,0 16,-13 25,-30c10,-16 25,-30 33,-30c12,0 12,5 -3,28c-10,15 -21,30 -26,33c-13,9 11,49 28,49c8,0 15,5 15,10c0,22 -30,8 -45,-20c-9,-16 -20,-30 -25,-30c-14,0 -12,34 2,48c9,9 4,12 -22,11c-19,0 -29,-3 -22,-6z"/>
   <path id="svg_297" d="m2907,1982c-39,-43 -5,-121 46,-108c14,3 28,14 31,23c6,15 5,16 -5,6c-17,-17 -34,-16 -53,3c-28,28 -20,44 24,44c41,0 52,14 28,38c-18,18 -53,15 -71,-6zm53,-7c11,-13 8,-15 -19,-15c-30,0 -39,9 -24,23c11,11 30,8 43,-8z"/>
   <path id="svg_298" d="m3018,1988c16,-16 16,-90 0,-106c-9,-9 -5,-12 17,-11c17,0 24,3 18,6c-8,3 -13,22 -12,46l0,42l22,-49l22,-49l13,27c14,31 16,48 3,27c-7,-10 -14,-2 -29,33c-16,35 -26,46 -43,46c-18,0 -20,-3 -11,-12z"/>
   <path id="svg_299" d="m3122,1975c-14,-31 -15,-46 -2,-25c7,11 10,4 10,-27c0,-24 -5,-43 -12,-46c-7,-3 3,-6 22,-6c26,-1 31,2 22,11c-16,16 -16,90 0,106c9,9 7,12 -8,12c-13,0 -25,-10 -32,-25z"/>
   <path id="svg_300" d="m3268,1988c16,-16 16,-90 0,-106c-9,-9 -4,-12 22,-11c19,0 29,3 23,6c-7,2 -13,16 -13,29c0,19 5,24 25,24c20,0 25,-5 25,-24c0,-13 -6,-27 -12,-29c-7,-3 3,-6 22,-6c26,-1 31,2 22,11c-7,7 -12,30 -12,53c0,23 5,46 12,53c9,9 4,12 -22,11c-19,0 -29,-3 -22,-6c6,-2 12,-16 12,-29c0,-19 -5,-24 -25,-24c-20,0 -25,5 -25,24c0,13 6,27 13,29c6,3 -4,6 -22,6c-27,1 -32,-2 -23,-11z"/>
   <path id="svg_301" d="m3420,1985c-7,-9 -10,-19 -6,-23c4,-4 12,1 17,11c13,22 35,22 43,1c8,-20 10,-17 -31,-38c-21,-10 -33,-24 -33,-37c0,-25 27,-36 51,-21c13,8 19,8 21,0c3,-7 11,-9 24,-4c12,6 15,10 7,13c-8,3 -13,22 -13,47c0,23 -5,47 -12,54c-17,17 -53,15 -68,-3zm58,-67c-2,-15 -11,-24 -25,-26c-28,-4 -31,22 -5,37c26,16 34,13 30,-11z"/>
   <path id="svg_302" d="m3550,1980c-26,-26 -26,-64 1,-91c26,-26 57,-21 78,11c15,25 15,25 -5,8c-28,-24 -41,-23 -60,7c-14,21 -15,31 -6,50c13,28 40,33 48,10c8,-19 24,-20 24,-1c0,30 -52,34 -80,6z"/>
   <path id="svg_303" d="m3679,1986c7,-8 11,-32 9,-53c-2,-29 -7,-38 -20,-37c-10,1 -18,-4 -18,-12c0,-21 28,-17 40,5c5,11 10,38 10,60c0,34 3,41 20,41c18,0 20,-7 20,-54c0,-34 -5,-56 -12,-59c-7,-3 3,-6 22,-6c26,-1 31,2 22,11c-7,7 -12,30 -12,53c0,23 5,46 12,53c9,9 -1,12 -46,12c-50,0 -57,-2 -47,-14z"/>
   <path id="svg_304" d="m3810,1985c-7,-9 -10,-19 -6,-23c4,-4 12,1 17,11c13,22 35,22 43,1c8,-20 10,-17 -31,-38c-21,-10 -33,-24 -33,-37c0,-25 27,-36 51,-20c11,6 19,7 19,2c0,-5 18,-9 40,-9c35,-1 42,3 55,29c9,16 20,29 25,29c14,0 12,-34 -2,-48c-9,-9 -4,-12 23,-12c22,0 29,3 21,9c-8,4 -12,19 -10,32c4,23 5,23 24,-8c10,-18 27,-33 37,-33c16,0 15,4 -8,35c-31,39 -27,75 8,75c16,0 18,3 9,12c-14,14 -38,-3 -47,-33c-4,-10 -11,-19 -16,-19c-14,0 -11,48 4,53c6,3 -4,6 -22,6c-27,1 -32,-2 -23,-11c13,-13 16,-48 4,-48c-4,0 -14,6 -21,13c-7,6 -11,8 -10,2c6,-20 -32,-77 -47,-71c-9,3 -18,6 -20,6c-2,0 -4,19 -4,43c0,24 -5,48 -12,55c-17,17 -53,15 -68,-3zm58,-67c-2,-15 -11,-24 -25,-26c-28,-4 -31,22 -5,37c26,16 34,13 30,-11z"/>
   <path id="svg_305" d="m3920,1992c0,-5 9,-12 21,-15c13,-3 19,-1 16,6c-5,15 -37,22 -37,9z"/>
   <path id="svg_306" d="m4138,1993c19,-7 14,-67 -8,-96c-22,-28 -29,-60 -8,-39c7,7 30,12 53,12c23,0 46,-5 53,-12c9,-9 12,-8 12,4c0,9 -4,20 -10,23c-14,9 -12,89 2,103c9,9 -1,12 -47,11c-33,0 -54,-3 -47,-6zm62,-58c0,-55 0,-55 -31,-55c-26,0 -30,3 -23,18c4,9 9,34 12,55c3,28 9,37 23,37c16,0 19,-8 19,-55z"/>
   <path id="svg_307" d="m4270,1985c-7,-9 -10,-19 -6,-23c4,-4 12,1 17,11c13,22 35,22 43,1c8,-20 10,-17 -31,-38c-21,-10 -33,-24 -33,-37c0,-25 27,-36 51,-21c13,8 19,8 21,0c3,-7 11,-9 24,-4c12,6 15,10 7,13c-8,3 -13,22 -13,47c0,23 -5,47 -12,54c-17,17 -53,15 -68,-3zm58,-67c-2,-15 -11,-24 -25,-26c-28,-4 -31,22 -5,37c26,16 34,13 30,-11z"/>
   <path id="svg_308" d="m4380,1991c0,-5 9,-7 20,-4c18,5 20,0 20,-50c0,-35 -5,-57 -12,-60c-7,-3 5,-6 27,-6c32,0 36,2 23,10c-13,7 -18,23 -18,59c0,43 3,50 19,50c11,0 22,-6 24,-12c3,-8 6,-6 6,5c1,14 -8,17 -54,17c-30,0 -55,-4 -55,-9z"/>
   <path id="svg_309" d="m4508,1988c16,-16 16,-90 0,-106c-9,-9 -2,-12 33,-12c47,0 69,13 69,41c0,18 -19,29 -51,29c-13,0 -19,7 -19,24c0,13 6,27 13,29c6,3 -4,6 -22,6c-27,1 -32,-2 -23,-11zm75,-72c6,-16 -11,-36 -30,-36c-7,0 -13,11 -13,25c0,18 5,25 19,25c10,0 21,-6 24,-14z"/>
   <path id="svg_310" d="m4650,1980c-26,-26 -26,-64 1,-91c26,-26 57,-21 78,11c15,25 15,25 -5,8c-28,-24 -41,-23 -60,7c-14,21 -15,31 -6,50c13,28 40,33 48,10c8,-19 24,-20 24,-1c0,30 -52,34 -80,6z"/>
   <path id="svg_311" d="m4772,1988c-16,-16 -15,-23 4,-42c14,-15 13,-19 -6,-46c-17,-24 -18,-30 -6,-30c8,0 23,14 33,30c9,17 21,30 25,30c12,0 9,-35 -4,-48c-9,-9 -4,-12 23,-11c18,0 28,3 22,6c-8,3 -13,25 -13,58c0,33 5,55 13,58c6,3 -8,6 -33,6c-26,1 -51,-4 -58,-11zm58,-23c0,-25 -23,-35 -35,-15c-10,16 2,40 20,40c9,0 15,-9 15,-25z"/>
   <path id="svg_312" d="m4951,1983c0,-11 3,-13 6,-5c2,6 13,12 24,12c16,0 19,-7 19,-48c0,-26 -5,-53 -12,-60c-9,-9 -4,-12 23,-11c18,0 28,3 22,6c-8,3 -13,25 -13,60c0,50 2,55 20,50c11,-3 20,-1 20,4c0,5 -25,9 -55,9c-46,0 -55,-3 -54,-17z"/>
   <path id="svg_313" d="m5097,1982c-36,-39 -10,-112 39,-112c25,0 38,10 53,37c16,31 14,50 -9,73c-25,25 -62,26 -83,2zm61,-4c19,-19 15,-87 -5,-95c-20,-8 -53,30 -53,61c0,24 17,46 35,46c6,0 16,-5 23,-12z"/>
   <path id="svg_314" d="m5239,1986c7,-8 11,-32 9,-53c-2,-29 -7,-38 -20,-37c-10,1 -18,-4 -18,-12c0,-21 28,-17 40,5c5,11 10,38 10,60c0,34 3,41 20,41c18,0 20,-7 20,-54c0,-34 -5,-56 -12,-59c-7,-3 3,-6 22,-6c26,-1 31,2 22,11c-7,7 -12,30 -12,53c0,23 5,46 12,53c9,9 -1,12 -46,12c-50,0 -57,-2 -47,-14z"/>
   <path id="svg_315" d="m5358,1993c7,-3 12,-25 12,-58c0,-33 -5,-55 -12,-58c-7,-3 8,-6 34,-6c44,-1 78,16 78,39c0,13 -34,30 -59,30c-26,0 -29,35 -3,49c13,8 9,10 -23,10c-22,0 -34,-3 -27,-6zm77,-88c0,-13 -8,-21 -22,-23c-19,-3 -23,1 -23,23c0,22 4,26 23,23c14,-2 22,-10 22,-23z"/>
   <path id="svg_316" d="m5488,1993c7,-3 12,-25 12,-58c0,-33 -5,-55 -12,-58c-7,-3 3,-6 22,-6c26,-1 31,2 22,11c-13,13 -16,48 -4,48c4,0 16,-13 25,-30c10,-17 27,-30 37,-30c17,0 17,2 -5,26c-24,26 -29,38 -25,59c1,6 -4,4 -11,-2c-7,-7 -17,-13 -21,-13c-12,0 -9,35 4,48c9,9 4,12 -22,11c-19,0 -29,-3 -22,-6z"/>
   <path id="svg_317" d="m5567,1993c-13,-13 -7,-21 13,-16c11,3 20,9 20,14c0,10 -24,12 -33,2z"/>
   <path id="svg_318" d="m5640,1980c-11,-11 -20,-31 -20,-45c0,-30 32,-65 60,-65c28,0 60,35 60,65c0,30 -32,65 -60,65c-11,0 -29,-9 -40,-20zm69,-24c16,-35 1,-79 -27,-74c-27,5 -47,55 -33,85c14,31 42,27 60,-11z"/>
   <path id="svg_319" d="m5850,1980c-44,-44 -8,-124 47,-104c14,5 28,15 31,22c3,11 1,11 -16,1c-18,-11 -24,-10 -42,6c-25,22 -23,63 3,79c14,9 20,7 28,-6c12,-21 29,-24 29,-4c0,30 -52,34 -80,6z"/>
   <path id="svg_320" d="m5958,1993c7,-3 12,-25 12,-58c0,-33 -5,-55 -12,-59c-7,-3 11,-4 41,-3c40,1 57,7 65,20c9,14 7,21 -5,30c-12,9 -14,16 -6,29c18,28 -9,48 -62,47c-25,0 -40,-3 -33,-6zm75,-17c6,-16 -11,-36 -30,-36c-7,0 -13,11 -13,25c0,18 5,25 19,25c10,0 21,-6 24,-14zm2,-71c0,-13 -8,-21 -22,-23c-19,-3 -23,1 -23,23c0,22 4,26 23,23c14,-2 22,-10 22,-23z"/>
   <path id="svg_321" d="m6107,1982c-36,-39 -10,-112 39,-112c25,0 38,10 53,37c16,31 14,50 -9,73c-25,25 -62,26 -83,2zm61,-4c19,-19 15,-87 -5,-95c-20,-8 -53,30 -53,61c0,24 17,46 35,46c6,0 16,-5 23,-12z"/>
   <path id="svg_322" d="m6247,1982c-39,-43 -5,-121 46,-108c14,3 28,14 31,23c6,15 5,16 -5,6c-17,-17 -34,-16 -53,3c-28,28 -20,44 24,44c41,0 52,14 28,38c-18,18 -53,15 -71,-6zm53,-7c11,-13 8,-15 -19,-15c-30,0 -39,9 -24,23c11,11 30,8 43,-8z"/>
   <path id="svg_323" d="m6358,1988c7,-7 12,-30 12,-53c0,-23 -5,-46 -12,-53c-9,-9 -6,-12 14,-12c20,0 25,4 21,18c-2,10 6,27 21,41l26,24l0,-35c0,-20 -6,-39 -12,-41c-7,-3 3,-6 22,-6c26,-1 31,2 22,11c-7,7 -12,30 -12,53c0,23 5,46 12,53c9,9 6,12 -14,12c-20,0 -25,-4 -21,-18c2,-10 -6,-27 -21,-41l-26,-24l0,35c0,20 6,39 13,41c6,3 -4,6 -22,6c-27,1 -32,-2 -23,-11z"/>
   <path id="svg_324" d="m6578,1988c7,-7 12,-30 12,-53c0,-23 -5,-46 -12,-53c-9,-9 -4,-12 23,-11c18,0 28,3 22,6c-7,2 -13,16 -13,29c0,19 5,24 25,24c20,0 25,-5 25,-24c0,-13 -6,-27 -12,-29c-7,-3 3,-6 22,-6c26,-1 31,2 22,11c-7,7 -12,30 -12,53c0,23 5,46 12,53c9,9 4,12 -22,11c-19,0 -29,-3 -22,-6c6,-2 12,-16 12,-29c0,-19 -5,-24 -25,-24c-20,0 -25,5 -25,24c0,13 6,27 13,29c6,3 -4,6 -22,6c-27,1 -32,-2 -23,-11z"/>
   <path id="svg_325" d="m6737,1994c-10,-11 -9,-34 3,-34c6,0 10,7 10,16c0,21 34,14 38,-8c2,-12 -8,-22 -33,-32c-29,-12 -36,-20 -33,-38c3,-26 34,-36 52,-17c8,9 8,10 0,6c-15,-8 -35,15 -26,29c4,6 15,13 25,17c14,5 17,1 17,-28c0,-34 20,-49 35,-25c3,6 2,10 -4,10c-5,0 -11,24 -13,53c-3,50 -4,52 -33,55c-17,2 -34,0 -38,-4z"/>
   <path id="svg_326" d="m6871,1948c16,-29 29,-62 29,-73c0,-26 -18,-45 -35,-39c-7,3 -16,1 -20,-5c-10,-17 25,-25 40,-10c8,8 29,51 48,97c31,73 33,82 17,82c-13,0 -17,-5 -13,-19c3,-10 -2,-31 -10,-47l-15,-28l-16,33c-10,18 -15,39 -12,47c4,10 -2,14 -18,14l-24,0l29,-52z"/>
   <path id="svg_327" d="m6988,1988c7,-7 12,-25 12,-41c0,-27 2,-29 35,-25c27,3 35,0 35,-12c0,-9 -5,-21 -12,-28c-9,-9 -4,-12 23,-11c18,0 28,3 22,6c-8,3 -13,25 -13,58c0,33 5,55 13,58c6,3 -3,6 -21,6c-29,1 -31,-1 -21,-18c16,-24 5,-51 -21,-51c-15,0 -20,7 -20,29c0,16 6,32 13,34c6,3 -4,6 -22,6c-27,1 -32,-2 -23,-11z"/>
   <path id="svg_328" d="m7128,1993c7,-3 12,-25 12,-58c0,-33 -5,-55 -12,-58c-7,-3 3,-6 22,-6c26,-1 31,2 22,11c-7,7 -12,20 -12,30c0,13 8,18 30,18c22,0 30,-5 30,-18c0,-10 -5,-23 -12,-30c-9,-9 -4,-12 23,-11c18,0 28,3 22,6c-8,3 -13,25 -13,58c0,33 5,55 13,58c6,3 -4,6 -22,6c-27,1 -32,-2 -23,-11c7,-7 12,-20 12,-30c0,-13 -8,-18 -30,-18c-22,0 -30,5 -30,18c0,10 5,23 12,30c9,9 4,12 -22,11c-19,0 -29,-3 -22,-6z"/>
   <path id="svg_329" d="m7297,1982c-21,-23 -22,-76 -1,-96c36,-37 94,-6 94,51c0,54 -59,83 -93,45zm67,-23c14,-41 0,-81 -27,-77c-26,4 -43,44 -33,82c9,36 47,32 60,-5z"/>
   <path id="svg_330" d="m7418,1993c7,-3 12,-25 12,-58c0,-33 -5,-55 -12,-58c-7,-3 2,-6 21,-6c27,-1 31,2 22,12c-8,10 -7,17 1,25c9,9 9,12 0,12c-7,0 -12,13 -12,28c0,15 5,33 12,40c9,9 4,12 -22,11c-19,0 -29,-3 -22,-6z"/>
   <path id="svg_331" d="m7498,1988c9,-9 8,-16 -6,-32c-16,-20 -16,-20 1,-7c15,12 17,10 17,-21c0,-19 -5,-39 -12,-46c-9,-9 -4,-12 23,-11c18,0 28,3 22,6c-8,3 -13,25 -13,58c0,33 5,55 13,58c6,3 -4,6 -22,6c-27,1 -32,-2 -23,-11z"/>
   <path id="svg_332" d="m7641,1991c-9,-6 -10,-11 -2,-15c15,-10 14,-139 -1,-154c-9,-9 -4,-12 23,-11c18,0 28,3 22,6c-7,2 -13,17 -13,32c0,24 3,28 23,24c34,-7 59,27 55,73c-4,45 -28,65 -58,46c-12,-7 -20,-8 -20,-2c0,12 -10,13 -29,1zm77,-23c29,-29 3,-98 -33,-84c-15,5 -22,76 -8,89c10,11 28,8 41,-5z"/>
   <path id="svg_333" d="m7790,1985c-7,-9 -10,-19 -6,-23c4,-4 12,1 17,11c13,22 35,22 43,1c8,-20 10,-17 -32,-38c-25,-13 -32,-23 -30,-39c3,-19 9,-22 48,-22l44,0l-3,50c-1,28 -7,56 -13,63c-14,17 -53,15 -68,-3zm60,-65c0,-27 -38,-47 -47,-24c-4,11 1,22 12,30c26,19 35,17 35,-6z"/>
   <path id="svg_334" d="m8074,1992c-15,-10 -34,-47 -34,-66c0,-22 36,-56 60,-56c29,0 60,35 60,68c0,46 -51,78 -86,54zm60,-45c8,-31 7,-41 -7,-55c-24,-23 -51,-5 -55,37c-5,46 4,63 30,59c17,-2 25,-13 32,-41z"/>
   <path id="svg_335" d="m8180,1991c0,-5 9,-7 20,-4c18,5 20,0 20,-50c0,-35 -5,-57 -12,-60c-7,-3 5,-6 27,-6c32,0 36,2 23,10c-13,7 -18,23 -18,59c0,43 3,50 19,50c11,0 22,-6 24,-12c3,-8 6,-6 6,5c1,14 -8,17 -54,17c-30,0 -55,-4 -55,-9z"/>
   <path id="svg_336" d="m8327,1982c-21,-23 -22,-76 -1,-96c36,-37 94,-6 94,51c0,54 -59,83 -93,45zm67,-23c14,-41 0,-81 -27,-77c-26,4 -43,44 -33,82c9,36 47,32 60,-5z"/>
   <path id="svg_337" d="m8448,1993c7,-3 12,-25 12,-58c0,-33 -5,-55 -12,-58c-7,-3 2,-6 21,-6c27,-1 31,2 22,12c-8,10 -7,17 1,25c9,9 9,12 0,12c-7,0 -12,13 -12,28c0,15 5,33 12,40c9,9 4,12 -22,11c-19,0 -29,-3 -22,-6z"/>
   <path id="svg_338" d="m8528,1988c9,-9 8,-16 -6,-32c-16,-20 -16,-20 1,-7c15,12 17,10 17,-21c0,-19 -5,-39 -12,-46c-9,-9 -4,-12 23,-11c18,0 28,3 22,6c-8,3 -13,25 -13,58c0,33 5,55 13,58c6,3 -4,6 -22,6c-27,1 -32,-2 -23,-11z"/>
   <path id="svg_339" d="m1465,1890c-3,-5 1,-13 10,-16c10,-4 14,-13 10,-23c-5,-12 -3,-13 5,-5c14,14 10,46 -7,51c-6,2 -14,-1 -18,-7z"/>
   <path id="svg_340" d="m8610,1885c0,-8 5,-15 10,-15c6,0 10,7 10,15c0,8 -4,15 -10,15c-5,0 -10,-7 -10,-15z"/>
   <path id="svg_341" d="m8222,1248c-7,-7 -12,-16 -12,-22c0,-6 5,-5 12,2c18,18 46,14 58,-7c14,-26 0,-60 -46,-110l-36,-41l55,0c41,0 56,4 61,16c9,24 7,29 -6,16c-7,-7 -27,-12 -46,-12l-34,0l36,40c45,50 54,84 31,110c-20,22 -55,26 -73,8z"/>
   <path id="svg_342" d="m8366,1244c-20,-20 -20,-38 0,-58c14,-14 14,-18 0,-38c-20,-28 -20,-42 0,-62c22,-22 60,-20 78,5c15,22 12,43 -11,70c-11,14 -11,18 2,29c18,15 20,41 3,58c-17,17 -54,15 -72,-4zm62,-20c2,-11 -3,-26 -11,-32c-18,-15 -52,19 -43,43c9,24 50,15 54,-11zm-1,-131c-32,-32 -75,18 -46,53c11,13 16,12 38,-10c24,-25 25,-27 8,-43z"/>
   <path id="svg_343" d="m8581,1241c-37,-37 -35,-129 4,-161c38,-32 85,16 85,86c0,77 -47,117 -89,75zm62,-36c6,-26 5,-56 -2,-83c-20,-74 -61,-45 -61,43c0,89 47,118 63,40z"/>
   <path id="svg_344" d="m8745,1253c-6,-2 -9,-36 -7,-84c3,-60 0,-84 -10,-90c-8,-6 1,-9 26,-9c34,0 37,2 23,13c-12,9 -17,31 -19,93c-2,48 -7,79 -13,77z"/>
   <path id="svg_345" d="m8922,1248c-7,-7 -12,-16 -12,-22c0,-6 5,-5 12,2c18,18 46,14 58,-7c14,-26 0,-60 -46,-110l-36,-41l55,0c41,0 56,4 61,16c9,24 7,29 -6,16c-7,-7 -27,-12 -46,-12l-34,0l36,40c45,50 54,84 31,110c-20,22 -55,26 -73,8z"/>
   <path id="svg_346" d="m9071,1241c-37,-37 -35,-129 4,-161c38,-32 85,16 85,86c0,77 -47,117 -89,75zm62,-36c6,-26 5,-56 -2,-83c-20,-74 -61,-45 -61,43c0,89 47,118 63,40z"/>
   <path id="svg_347" d="m9202,1248c-7,-7 -12,-16 -12,-22c0,-6 5,-5 12,2c18,18 46,14 58,-7c14,-26 0,-60 -46,-110l-36,-41l55,0c41,0 56,4 61,16c9,24 7,29 -6,16c-7,-7 -27,-12 -46,-12l-34,0l36,40c45,50 54,84 31,110c-20,22 -55,26 -73,8z"/>
   <path id="svg_348" d="m9375,1253c-6,-2 -9,-36 -7,-84c3,-60 0,-84 -10,-90c-8,-6 1,-9 26,-9c34,0 37,2 23,13c-12,9 -17,31 -19,93c-2,48 -7,79 -13,77z"/>
   <path id="svg_349" d="m8497,1094c-8,-8 1,-24 14,-24c5,0 9,7 9,15c0,15 -12,20 -23,9z"/>
   <path id="svg_350" d="m8847,1094c-8,-8 1,-24 14,-24c5,0 9,7 9,15c0,15 -12,20 -23,9z"/>
   <path id="svg_351" d="m4455,598c-33,-18 -45,-40 -45,-85c0,-108 141,-129 169,-26c23,83 -52,151 -124,111zm80,-18c25,-28 26,-101 1,-129c-43,-48 -99,-8 -98,70c1,70 56,104 97,59z"/>
   <path id="svg_352" d="m6120,602c0,-15 24,-32 46,-32c24,0 51,26 40,38c-4,4 -12,-1 -17,-11c-12,-21 -38,-22 -45,-2c-6,16 -24,21 -24,7z"/>
   <path id="svg_353" d="m4600,528c1,-21 2,-21 11,-5c5,9 17,17 24,17c19,0 21,-90 3,-108c-9,-9 -4,-12 23,-11c18,0 28,3 22,6c-19,7 -17,113 2,113c7,0 19,-8 25,-17c11,-17 11,-17 6,0c-3,10 -6,21 -6,23c0,2 -25,4 -55,4c-50,0 -55,-2 -55,-22z"/>
   <path id="svg_354" d="m4738,539c15,-16 16,-91 0,-107c-9,-9 -3,-12 29,-12c23,0 48,3 57,6c16,6 22,35 9,48c-4,3 -7,21 -7,39c-1,31 -2,32 -51,35c-40,3 -48,1 -37,-9zm67,-24c0,-11 -8,-21 -17,-23c-14,-3 -18,3 -18,23c0,20 4,26 18,23c9,-2 17,-12 17,-23zm2,-46c16,-16 5,-39 -18,-39c-14,0 -19,7 -19,25c0,26 18,33 37,14z"/>
   <path id="svg_355" d="m4889,540c-9,-5 -20,-21 -23,-34c-16,-64 45,-110 87,-67l22,22l-29,-12c-26,-12 -30,-11 -47,10c-28,34 -24,41 26,41c48,0 55,9 29,34c-17,18 -41,20 -65,6zm49,-17c2,-9 -7,-13 -28,-13c-28,0 -31,2 -20,15c15,18 41,16 48,-2z"/>
   <path id="svg_356" d="m4980,528c1,-21 2,-21 11,-5c5,9 17,17 24,17c19,0 21,-90 3,-108c-9,-9 -4,-12 23,-11c18,0 28,3 22,6c-19,7 -17,113 2,113c7,0 19,-8 25,-17c11,-17 11,-17 6,0c-3,10 -6,21 -6,23c0,2 -25,4 -55,4c-50,0 -55,-2 -55,-22z"/>
   <path id="svg_357" d="m5130,530c-44,-44 -8,-124 47,-104c14,5 28,15 31,22c3,11 1,11 -16,1c-18,-11 -24,-10 -42,6c-25,22 -23,63 3,79c14,9 20,7 28,-6c12,-21 29,-24 29,-4c0,30 -52,34 -80,6z"/>
   <path id="svg_358" d="m5230,541c0,-5 9,-7 20,-4c18,5 20,0 20,-50c0,-35 -5,-57 -12,-60c-7,-3 5,-6 27,-6c32,0 36,2 23,10c-13,7 -18,23 -18,59c0,43 3,50 19,50c11,0 22,-6 24,-12c3,-8 6,-6 6,5c1,14 -8,17 -54,17c-30,0 -55,-4 -55,-9z"/>
   <path id="svg_359" d="m5358,543c7,-3 12,-25 12,-58c0,-33 -5,-55 -12,-59c-7,-3 11,-4 41,-3c40,1 57,7 65,20c9,14 7,21 -5,30c-12,9 -14,16 -6,29c18,28 -9,48 -62,47c-25,0 -40,-3 -33,-6zm75,-17c6,-16 -11,-36 -30,-36c-7,0 -13,11 -13,25c0,18 5,25 19,25c10,0 21,-6 24,-14zm2,-71c0,-13 -8,-21 -22,-23c-19,-3 -23,1 -23,23c0,22 4,26 23,23c14,-2 22,-10 22,-23z"/>
   <path id="svg_360" d="m5507,532c-39,-43 -5,-121 46,-108c14,3 28,14 31,23c6,15 5,16 -5,6c-17,-17 -34,-16 -53,3c-28,28 -20,44 24,44c41,0 52,14 28,38c-18,18 -53,15 -71,-6zm53,-7c11,-13 8,-15 -19,-15c-30,0 -39,9 -24,23c11,11 30,8 43,-8z"/>
   <path id="svg_361" d="m5618,538c7,-7 12,-30 12,-53c0,-23 -5,-46 -12,-53c-9,-9 -4,-12 23,-11c18,0 28,3 22,6c-7,2 -13,16 -13,29c0,20 5,24 30,24c22,0 30,-5 30,-18c0,-10 -5,-23 -12,-30c-9,-9 -7,-12 13,-12c23,0 24,3 24,65c0,62 -1,65 -24,65c-20,0 -22,-3 -13,-12c7,-7 12,-20 12,-30c0,-13 -8,-18 -30,-18c-25,0 -30,4 -30,24c0,13 6,27 13,29c6,3 -4,6 -22,6c-27,1 -32,-2 -23,-11z"/>
   <path id="svg_362" d="m5768,538c7,-7 12,-30 12,-53c0,-23 -5,-46 -12,-53c-9,-9 -4,-12 23,-11c18,0 28,3 22,6c-7,2 -13,16 -13,29c0,20 5,24 30,24c22,0 30,-5 30,-18c0,-10 -5,-23 -12,-30c-9,-9 -7,-12 13,-12c23,0 24,3 24,65c0,62 -1,65 -24,65c-20,0 -22,-3 -13,-12c7,-7 12,-20 12,-30c0,-13 -8,-18 -30,-18c-25,0 -30,4 -30,24c0,13 6,27 13,29c6,3 -4,6 -22,6c-27,1 -32,-2 -23,-11z"/>
   <path id="svg_363" d="m5918,538c7,-7 12,-30 12,-53c0,-23 -5,-46 -12,-53c-9,-9 -2,-12 34,-12c52,0 79,21 61,48c-5,10 -22,18 -37,20c-20,3 -26,9 -26,27c0,13 6,26 13,28c6,3 -4,6 -22,6c-27,1 -32,-2 -23,-11zm75,-72c6,-16 -11,-36 -30,-36c-7,0 -13,11 -13,25c0,18 5,25 19,25c10,0 21,-6 24,-14z"/>
   <path id="svg_364" d="m6029,541c9,-6 12,-25 10,-65c-4,-54 -3,-56 21,-56c19,0 21,3 12,12c-7,7 -12,30 -12,53c0,23 5,46 12,53c9,9 4,12 -22,12c-24,0 -31,-3 -21,-9z"/>
   <path id="svg_365" d="m6108,538c7,-7 12,-30 12,-53c0,-23 -5,-46 -12,-53c-9,-9 -6,-12 14,-12c20,0 25,4 21,18c-2,10 6,27 21,41l26,24l0,-35c0,-20 -6,-39 -12,-41c-7,-3 3,-6 22,-6c26,-1 31,2 22,11c-7,7 -12,30 -12,53c0,23 5,46 12,53c9,9 6,12 -14,12c-20,0 -25,-4 -21,-18c2,-10 -6,-27 -21,-41l-26,-24l0,35c0,20 6,39 13,41c6,3 -4,6 -22,6c-27,1 -32,-2 -23,-11z"/>
   <path id="svg_366" d="m6328,538c7,-7 12,-30 12,-53c0,-23 -5,-46 -12,-53c-9,-9 -4,-12 23,-11c18,0 28,3 22,6c-8,3 -13,25 -13,59c0,51 1,54 25,54c24,0 25,-3 25,-54c0,-34 -5,-56 -12,-59c-7,-3 3,-6 22,-6c26,-1 31,2 22,11c-7,7 -12,30 -12,53c0,23 5,46 12,53c9,9 -3,12 -57,12c-54,0 -66,-3 -57,-12z"/>
   <path id="svg_367" d="m6490,530c-11,-11 -20,-31 -20,-45c0,-30 32,-65 60,-65c28,0 60,35 60,65c0,30 -32,65 -60,65c-11,0 -29,-9 -40,-20zm69,-24c16,-35 1,-79 -27,-74c-27,5 -47,55 -33,85c14,31 42,27 60,-11z"/>
   <path id="svg_368" d="m6700,530c-44,-44 -8,-124 47,-104c14,5 28,15 31,22c3,11 1,11 -16,1c-18,-11 -24,-10 -42,6c-25,22 -23,63 3,79c14,9 20,7 28,-6c12,-21 29,-24 29,-4c0,30 -52,34 -80,6z"/>
   <path id="svg_369" d="m6808,543c7,-3 12,-25 12,-58c0,-33 -5,-55 -12,-58c-7,-3 3,-6 22,-6c26,-1 31,2 22,11c-7,7 -12,34 -12,60c0,47 1,48 30,48c29,0 30,-1 30,-48c0,-26 -5,-53 -12,-60c-9,-9 -4,-12 23,-11c18,0 28,3 22,6c-8,3 -13,25 -13,58c0,33 5,55 13,58c6,3 -22,5 -63,5c-41,0 -69,-2 -62,-5z"/>
   <path id="svg_370" d="m6976,534c-9,-8 -16,-31 -16,-49c0,-60 49,-85 86,-44c19,22 19,22 -3,10c-28,-14 -58,-1 -66,29c-5,18 0,20 39,20c48,0 61,20 25,40c-27,14 -47,13 -65,-6zm52,-11c2,-8 -6,-13 -22,-13c-25,0 -33,10 -19,24c10,10 36,3 41,-11z"/>
   <path id="svg_371" d="m7078,543c7,-3 12,-25 12,-58c0,-33 -5,-55 -12,-58c-7,-3 14,-6 48,-6c33,-1 65,-6 72,-13c9,-9 12,-8 12,5c0,9 -4,17 -10,17c-14,0 -12,94 2,108c9,9 4,12 -22,11c-19,0 -29,-3 -22,-6c7,-3 12,-25 12,-59c0,-54 0,-55 -27,-52c-25,3 -28,7 -31,46c-2,24 2,50 9,58c9,12 6,14 -22,13c-19,0 -28,-3 -21,-6z"/>
   <path id="svg_372" d="m7228,543c7,-3 12,-25 12,-58c0,-33 -5,-55 -12,-58c-7,-3 3,-6 22,-6c26,-1 31,2 22,11c-9,9 -7,18 10,37c13,14 16,20 8,14c-8,-7 -18,-13 -22,-13c-13,0 -9,55 4,68c9,9 4,12 -22,11c-19,0 -29,-3 -22,-6z"/>
   <path id="svg_373" d="m7306,542c16,-11 18,-103 2,-113c-8,-6 -1,-9 22,-9c26,0 31,3 22,12c-7,7 -12,30 -12,53c0,23 5,46 12,53c9,9 4,12 -22,12c-19,0 -30,-4 -24,-8z"/>
   <path id="svg_374" d="m7390,535c-7,-9 -10,-19 -6,-23c4,-4 12,1 17,11c13,22 35,22 43,1c8,-20 10,-17 -31,-38c-21,-10 -33,-24 -33,-37c0,-25 27,-36 51,-21c13,8 19,8 21,0c3,-7 11,-9 24,-4c12,6 15,10 7,13c-8,3 -13,22 -13,47c0,23 -5,47 -12,54c-17,17 -53,15 -68,-3zm58,-67c-2,-15 -11,-24 -25,-26c-28,-4 -31,22 -5,37c26,16 34,13 30,-11z"/>
   <path id="svg_375" d="m7529,494c3,-49 1,-56 -13,-51c-10,4 -16,1 -16,-9c0,-9 7,-14 18,-12c13,2 18,15 20,61c3,53 5,57 27,57c23,0 25,-4 25,-44c0,-27 -6,-51 -16,-60c-14,-15 -13,-16 13,-16c28,0 28,0 28,65l0,65l-45,0l-45,0l4,-56z"/>
   <path id="svg_376" d="m7648,538c7,-7 12,-30 12,-53c0,-23 -5,-46 -12,-53c-9,-9 -2,-12 33,-12c47,0 69,13 69,41c0,18 -19,29 -51,29c-13,0 -19,7 -19,24c0,13 6,27 13,29c6,3 -4,6 -22,6c-27,1 -32,-2 -23,-11zm75,-72c6,-16 -11,-36 -30,-36c-7,0 -13,11 -13,25c0,18 5,25 19,25c10,0 21,-6 24,-14z"/>
   <path id="svg_377" d="m7778,538c7,-7 12,-30 12,-53c0,-23 -5,-46 -12,-53c-9,-9 -4,-12 23,-11c18,0 28,3 22,6c-7,2 -13,16 -13,29c0,19 5,24 25,24c20,0 25,-5 25,-24c0,-13 -6,-27 -12,-29c-7,-3 3,-6 22,-6c26,-1 31,2 22,11c-7,7 -12,30 -12,53c0,23 5,46 12,53c9,9 4,12 -22,11c-19,0 -29,-3 -22,-6c6,-2 12,-16 12,-29c0,-19 -5,-24 -25,-24c-20,0 -25,5 -25,24c0,13 6,27 13,29c6,3 -4,6 -22,6c-27,1 -32,-2 -23,-11z"/>
   <path id="svg_378" d="m7928,538c7,-7 12,-30 12,-53c0,-23 -5,-46 -12,-53c-9,-9 -2,-12 34,-12c52,0 79,21 61,48c-5,10 -22,18 -37,20c-20,3 -26,9 -26,27c0,13 6,26 13,28c6,3 -4,6 -22,6c-27,1 -32,-2 -23,-11zm67,-83c0,-11 -8,-21 -17,-23c-14,-3 -18,3 -18,23c0,20 4,26 18,23c9,-2 17,-12 17,-23z"/>
   <path id="svg_379" d="m8039,541c9,-6 12,-25 10,-65c-3,-45 -1,-56 11,-56c12,0 14,11 12,50c-3,30 1,57 8,65c11,13 7,15 -21,15c-23,0 -30,-3 -20,-9z"/>
   <path id="svg_380" d="m8108,543c7,-3 12,-25 12,-58c0,-33 -5,-55 -12,-58c-7,-3 0,-6 17,-6c22,-1 26,2 17,11c-7,7 -12,30 -11,52l1,41l19,-40c10,-22 20,-44 23,-50c2,-6 9,-3 15,5c13,18 14,33 2,26c-5,-3 -16,15 -26,39c-14,38 -21,45 -43,44c-15,0 -21,-3 -14,-6z"/>
   <path id="svg_381" d="m8217,533c-2,-10 -8,-27 -12,-38c-4,-13 -1,-12 9,5l15,25l1,-41c0,-22 -5,-45 -12,-52c-9,-9 -4,-12 23,-12c23,0 30,3 20,9c-9,6 -12,25 -10,65c3,47 1,56 -12,56c-9,0 -19,-8 -22,-17z"/>
   <path id="svg_382" d="m8360,534c0,-13 3,-14 15,-4c16,13 45,7 45,-9c0,-5 -7,-16 -15,-24c-13,-13 -13,-16 0,-21c23,-8 18,-35 -7,-46c-22,-8 -22,-9 4,-9c35,-1 55,31 33,53c-9,9 -11,17 -5,21c16,10 12,42 -6,49c-31,12 -64,7 -64,-10z"/>
   <path id="svg_383" d="m8480,535c-7,-9 -10,-19 -6,-23c4,-4 12,1 17,11c13,22 35,22 43,1c8,-20 10,-17 -32,-38c-25,-13 -32,-23 -30,-39c3,-19 9,-22 48,-22l44,0l-3,50c-1,28 -7,56 -13,63c-14,17 -53,15 -68,-3zm60,-65c0,-27 -38,-47 -47,-24c-4,11 1,22 12,30c26,19 35,17 35,-6z"/>
   <path id="svg_384" d="m8614,542c3,-5 19,-7 36,-4l31,4l-3,-53c-3,-53 -4,-54 -36,-57c-31,-3 -33,-2 -23,17c6,11 11,26 11,33c-1,7 -7,-2 -15,-19c-8,-18 -19,-33 -25,-33c-5,0 -10,-10 -10,-22c1,-21 2,-21 11,-5c7,12 23,17 59,17c36,0 52,-5 59,-17c9,-16 10,-16 11,5c0,12 -4,22 -10,22c-15,0 -13,107 3,113c6,3 -14,6 -46,6c-32,1 -56,-3 -53,-7z"/>
   <path id="svg_385" d="m8753,544c-15,-7 -17,-34 -3,-34c6,0 10,7 10,16c0,21 34,14 38,-9c2,-10 -5,-20 -20,-26c-37,-14 -53,-38 -38,-56c15,-18 36,-19 46,-3c4,6 3,8 -3,5c-6,-4 -16,0 -22,7c-10,11 -7,18 11,30c22,16 23,16 26,-11c5,-36 18,-51 34,-35c9,9 9,12 1,12c-7,0 -13,21 -15,53c-3,47 -5,52 -28,54c-14,1 -31,-1 -37,-3z"/>
   <path id="svg_386" d="m8858,543c7,-3 12,-25 12,-58c0,-33 -5,-55 -12,-58c-7,-3 3,-6 22,-6c26,-1 31,2 22,11c-7,7 -12,20 -12,30c0,13 8,18 30,18c25,0 30,-4 30,-24c0,-13 -6,-27 -12,-29c-7,-3 3,-6 22,-6c26,-1 31,2 22,11c-7,7 -12,30 -12,53c0,23 5,46 12,53c9,9 4,12 -22,11c-19,0 -29,-3 -22,-6c6,-2 12,-16 12,-29c0,-20 -5,-24 -30,-24c-22,0 -30,5 -30,18c0,10 5,23 12,30c9,9 4,12 -22,11c-19,0 -29,-3 -22,-6z"/>
   <path id="svg_387" d="m9008,543c7,-3 12,-25 12,-58c0,-33 -5,-55 -12,-58c-7,-3 2,-6 21,-6c27,-1 31,2 22,12c-8,10 -7,17 1,25c9,9 9,12 0,12c-7,0 -12,13 -12,28c0,15 5,33 12,40c9,9 4,12 -22,11c-19,0 -29,-3 -22,-6z"/>
   <path id="svg_388" d="m9088,538c9,-9 8,-16 -6,-32c-16,-20 -16,-20 1,-7c15,12 17,10 17,-21c0,-19 -5,-39 -12,-46c-9,-9 -4,-12 23,-11c18,0 28,3 22,6c-8,3 -13,25 -13,58c0,33 5,55 13,58c6,3 -4,6 -22,6c-27,1 -32,-2 -23,-11z"/>
   <path id="svg_389" d="m9172,538c-16,-16 -15,-23 4,-42c14,-15 13,-19 -6,-46c-17,-24 -18,-30 -6,-30c8,0 23,14 33,30c9,17 21,30 25,30c12,0 9,-35 -4,-48c-9,-9 -4,-12 23,-11c18,0 28,3 22,6c-8,3 -13,25 -13,58c0,33 5,55 13,58c6,3 -8,6 -33,6c-26,1 -51,-4 -58,-11zm58,-23c0,-25 -23,-35 -35,-15c-10,16 2,40 20,40c9,0 15,-9 15,-25z"/>
   <path id="svg_390" d="m9288,543c7,-3 12,-25 12,-58c0,-33 -5,-55 -12,-58c-7,-3 1,-5 17,-5c17,0 24,2 18,5c-8,3 -13,23 -13,51l1,47l23,-55l24,-54l16,38c19,46 20,60 2,27c-13,-24 -13,-23 -31,23c-15,39 -22,46 -44,45c-14,0 -20,-3 -13,-6z"/>
   <path id="svg_391" d="m9396,534c-8,-22 -8,-26 4,-19c13,8 13,-51 0,-76c-9,-16 -7,-19 12,-19c22,0 23,4 23,65c0,54 -3,65 -16,65c-9,0 -20,-7 -23,-16z"/>
  </g>
  <rect id="svg_392" height="33" width="190" y="224" x="548" stroke-width="1.5" stroke="#000" fill="#482816"/>
 </g>
</svg>